G04 Layer: BottomSilkscreenLayer*
G04 EasyEDA v6.5.57, 2026-08-20 09:28:20*
G04 d37e67de4a31421e9a911c6ddd497033,47083fb59e924f2e982a52276fdf08c8,10*
G04 Gerber Generator version 0.2*
G04 Scale: 100 percent, Rotated: No, Reflected: No *
G04 Dimensions in millimeters *
G04 leading zeros omitted , absolute positions ,4 integer and 5 decimal *
%FSLAX45Y45*%
%MOMM*%

%ADD10C,0.0510*%
%ADD11C,0.2540*%
%ADD12C,0.1524*%
%ADD13C,0.0162*%

%LPD*%
G36*
X2183333Y11720118D02*
G01*
X1915363Y11664950D01*
X1742490Y11606530D01*
X1689709Y11563908D01*
X1631746Y11563908D01*
X1529384Y11497208D01*
X1437335Y11449608D01*
X1176629Y11270234D01*
X1016508Y11136172D01*
X795731Y10910976D01*
X687730Y10787532D01*
X477621Y10520375D01*
X243078Y10219029D01*
X132994Y10085070D01*
X-137972Y9798659D01*
X-355244Y9606686D01*
X-561644Y9468815D01*
X-681177Y9402826D01*
X-865886Y9322054D01*
X-1028852Y9267037D01*
X-1235252Y9221520D01*
X-1474266Y9197898D01*
X-1827682Y9175140D01*
X-1981352Y9141917D01*
X-2147874Y9084564D01*
X-2261920Y9017609D01*
X-2385009Y8902039D01*
X-2473756Y8904630D01*
X-2609545Y8951061D01*
X-2810560Y8995613D01*
X-3049574Y9022232D01*
X-3516731Y9007754D01*
X-3614521Y8987485D01*
X-3897020Y8950248D01*
X-4222902Y8882989D01*
X-4451096Y8816543D01*
X-4605528Y8763762D01*
X-4863896Y8658148D01*
X-5222443Y8473389D01*
X-5467096Y8321700D01*
X-5722213Y8138414D01*
X-5917692Y7978698D01*
X-6068060Y7841792D01*
X-6417513Y7841792D01*
X-6493560Y7815529D01*
X-6721703Y7744256D01*
X-6743446Y7728356D01*
X-6819493Y7699095D01*
X-7058507Y7577175D01*
X-7243165Y7454138D01*
X-7361123Y7361885D01*
X-7602169Y7116368D01*
X-7721193Y6971233D01*
X-8134045Y6545427D01*
X-8351367Y6366865D01*
X-8557768Y6210909D01*
X-8762136Y6069939D01*
X-9014053Y5913424D01*
X-9209633Y5809691D01*
X-9478568Y5693359D01*
X-9508693Y5693359D01*
X-9546386Y5673344D01*
X-9698532Y5628081D01*
X-10143947Y5516372D01*
X-10306913Y5470042D01*
X-10344658Y5447842D01*
X-10377830Y5447842D01*
X-10415574Y5427268D01*
X-10545927Y5376113D01*
X-10719765Y5277612D01*
X-10792663Y5219039D01*
X-10904423Y5105908D01*
X-10973003Y5007000D01*
X-11048085Y4847894D01*
X-11060328Y4794910D01*
X-11094567Y4638700D01*
X-11094567Y4434382D01*
X-10920730Y4434382D01*
X-10919968Y4638700D01*
X-10890808Y4761433D01*
X-10851794Y4861864D01*
X-10782046Y4973472D01*
X-10698022Y5063794D01*
X-10577271Y5157063D01*
X-10393832Y5245100D01*
X-10187381Y5315102D01*
X-9687661Y5446471D01*
X-9568129Y5479440D01*
X-9416034Y5528462D01*
X-9253067Y5594604D01*
X-9041892Y5703468D01*
X-8916263Y5774283D01*
X-8785910Y5853785D01*
X-8557768Y6009944D01*
X-8351367Y6165850D01*
X-8188401Y6300825D01*
X-8177530Y6312814D01*
X-8014563Y6456273D01*
X-7774533Y6703415D01*
X-7493711Y7038238D01*
X-7242556Y7297775D01*
X-6993331Y7465974D01*
X-6776008Y7577836D01*
X-6604660Y7647482D01*
X-6420510Y7702296D01*
X-6205677Y7702296D01*
X-6205677Y7681975D01*
X-6297980Y7565745D01*
X-6350101Y7489799D01*
X-6338468Y7477861D01*
X-6069838Y7697012D01*
X-5845454Y7864094D01*
X-5700471Y7970266D01*
X-5515762Y8100364D01*
X-5228234Y8282940D01*
X-4918252Y8451850D01*
X-4668367Y8564321D01*
X-4440224Y8652154D01*
X-4288129Y8697518D01*
X-4103420Y8749741D01*
X-3918712Y8786164D01*
X-3673500Y8828582D01*
X-3397250Y8866835D01*
X-2897479Y8868562D01*
X-2745384Y8839149D01*
X-2538984Y8793835D01*
X-2223922Y8703919D01*
X-1997862Y8649919D01*
X-1974342Y8674049D01*
X-2007412Y8734653D01*
X-2067560Y8764371D01*
X-2223922Y8821318D01*
X-2251049Y8843416D01*
X-2251049Y8860231D01*
X-2099056Y8942273D01*
X-1974037Y8986520D01*
X-1832813Y9021419D01*
X-1246124Y9040672D01*
X-1061415Y9073692D01*
X-848106Y9129928D01*
X-659434Y9200845D01*
X-518210Y9272066D01*
X-387858Y9345879D01*
X-246583Y9447631D01*
X-37592Y9620656D01*
X205282Y9859721D01*
X450342Y10152075D01*
X622401Y10375290D01*
X633526Y10386415D01*
X692810Y10468203D01*
X720394Y10498023D01*
X817981Y10620806D01*
X905002Y10721187D01*
X1111402Y10941202D01*
X1328724Y11121085D01*
X1556867Y11275314D01*
X1798929Y11396065D01*
X1994814Y11463477D01*
X2154377Y11495278D01*
X2295652Y11504320D01*
X2610713Y11489182D01*
X2719324Y11449608D01*
X2838856Y11386718D01*
X2964281Y11284102D01*
X3102965Y11104016D01*
X3200349Y10899800D01*
X3245764Y10754715D01*
X3280918Y10598505D01*
X3311042Y10397591D01*
X3311042Y10118598D01*
X3279241Y9895382D01*
X3236874Y9727946D01*
X3211220Y9638639D01*
X3124860Y9415424D01*
X3026816Y9220250D01*
X2879090Y8991346D01*
X2703322Y8775801D01*
X2491181Y8574735D01*
X2295652Y8415528D01*
X2045766Y8241995D01*
X1864817Y8135975D01*
X1524254Y7962087D01*
X1220063Y7837525D01*
X837488Y7714437D01*
X503021Y7625486D01*
X220573Y7568285D01*
X-61925Y7534148D01*
X-442163Y7521498D01*
X-668426Y7464755D01*
X-778967Y7586878D01*
X-941933Y7764983D01*
X-1152144Y7943342D01*
X-1263904Y8005825D01*
X-1275283Y7994142D01*
X-1261516Y7949692D01*
X-1083868Y7774838D01*
X-925017Y7611872D01*
X-792226Y7440218D01*
X-646125Y7216546D01*
X-589127Y7100925D01*
X-526034Y6937756D01*
X-490067Y6781546D01*
X-466699Y6681063D01*
X-456336Y6413246D01*
X-501751Y6192774D01*
X-581609Y6000292D01*
X-696671Y5821730D01*
X-844143Y5674309D01*
X-1080312Y5490311D01*
X-1148334Y5501233D01*
X-1286002Y5526735D01*
X-1417472Y5492140D01*
X-1539443Y5424830D01*
X-1617268Y5352897D01*
X-1758086Y5163210D01*
X-1865375Y5125974D01*
X-1984908Y5089144D01*
X-2272538Y4966817D01*
X-2506370Y4876596D01*
X-2843174Y4759045D01*
X-3147364Y4668316D01*
X-3375507Y4611319D01*
X-3630472Y4554982D01*
X-3756355Y4554982D01*
X-3810101Y4592269D01*
X-3910533Y4687163D01*
X-3997096Y4713782D01*
X-4236008Y4705400D01*
X-4399889Y4618786D01*
X-4532782Y4497171D01*
X-4631131Y4365904D01*
X-4711801Y4343908D01*
X-5015992Y4296664D01*
X-5135524Y4277309D01*
X-5483199Y4228795D01*
X-5765647Y4242257D01*
X-5950356Y4274312D01*
X-6124194Y4310583D01*
X-6330594Y4367326D01*
X-6478676Y4443476D01*
X-6566560Y4515916D01*
X-6669379Y4649825D01*
X-6744665Y4783785D01*
X-6802475Y4932883D01*
X-6847027Y5107432D01*
X-6883146Y5330647D01*
X-6883247Y5698947D01*
X-6846519Y5951880D01*
X-6812178Y6111900D01*
X-6771741Y6256985D01*
X-6727139Y6429552D01*
X-6727139Y6485788D01*
X-6745427Y6485788D01*
X-6801154Y6379718D01*
X-6880606Y6156502D01*
X-6892036Y6123025D01*
X-6933742Y5966815D01*
X-6975906Y5753354D01*
X-7000290Y5553862D01*
X-6999630Y5341772D01*
X-6977176Y5185562D01*
X-6934860Y4939995D01*
X-6965137Y4892141D01*
X-7091070Y4806086D01*
X-7437881Y4359656D01*
X-7895031Y3889705D01*
X-8112353Y3711244D01*
X-8329625Y3552647D01*
X-8503462Y3442411D01*
X-8753297Y3307943D01*
X-8932468Y3225647D01*
X-9122714Y3157626D01*
X-9318244Y3103219D01*
X-9707981Y3081985D01*
X-9850628Y3104845D01*
X-10006736Y3148279D01*
X-10199217Y3233521D01*
X-10361015Y3344011D01*
X-10553801Y3544925D01*
X-10713618Y3791204D01*
X-10810392Y4003954D01*
X-10878769Y4220108D01*
X-10920730Y4434382D01*
X-11094567Y4434382D01*
X-11094567Y4411573D01*
X-11071352Y4292701D01*
X-11036706Y4125264D01*
X-10975187Y3937304D01*
X-10835132Y3651046D01*
X-10699953Y3444494D01*
X-10572496Y3296818D01*
X-10404703Y3152546D01*
X-10306913Y3085287D01*
X-10186670Y3018180D01*
X-10024414Y2957322D01*
X-9915804Y2928162D01*
X-9774580Y2904540D01*
X-9608870Y2878175D01*
X-9459518Y2890570D01*
X-9285681Y2913583D01*
X-9231325Y2926892D01*
X-9133586Y2950362D01*
X-8883700Y3034893D01*
X-8666429Y3130702D01*
X-8394801Y3274110D01*
X-8134045Y3445052D01*
X-7873288Y3645154D01*
X-7699502Y3797706D01*
X-7409383Y4091787D01*
X-7187488Y4359656D01*
X-7056780Y4538218D01*
X-6945223Y4705654D01*
X-6891731Y4772609D01*
X-6869988Y4750257D01*
X-6789623Y4594047D01*
X-6722973Y4493564D01*
X-6645656Y4396943D01*
X-6515303Y4295292D01*
X-6357670Y4220159D01*
X-6336030Y4220159D01*
X-6336030Y4198366D01*
X-6384899Y4168038D01*
X-6536181Y4069486D01*
X-6730542Y3868572D01*
X-6847230Y3685692D01*
X-6920128Y3533749D01*
X-6955485Y3426358D01*
X-7001814Y3243580D01*
X-7026351Y2992932D01*
X-7012563Y2852978D01*
X-6882993Y2852978D01*
X-6882587Y3154324D01*
X-6824268Y3386632D01*
X-6758787Y3556101D01*
X-6658508Y3734663D01*
X-6544259Y3881780D01*
X-6439255Y3977182D01*
X-6318707Y4061663D01*
X-6221933Y4107942D01*
X-6126886Y4142028D01*
X-5993790Y4139234D01*
X-5896000Y4120489D01*
X-5635294Y4084065D01*
X-5441848Y4097375D01*
X-5139385Y4132986D01*
X-5126837Y4120083D01*
X-5215280Y3913225D01*
X-5284774Y3734663D01*
X-5411825Y3361029D01*
X-5467604Y3150565D01*
X-5500979Y2986887D01*
X-5510948Y2733497D01*
X-5391454Y2733497D01*
X-5368798Y2975711D01*
X-5327904Y3165449D01*
X-5294172Y3288233D01*
X-5186883Y3623056D01*
X-5074615Y3935577D01*
X-5020919Y4069486D01*
X-4972558Y4167987D01*
X-4733544Y4250994D01*
X-4695494Y4267200D01*
X-4695494Y4245457D01*
X-4790440Y4036009D01*
X-4817618Y3930853D01*
X-4803749Y3874160D01*
X-4781397Y3874160D01*
X-4663389Y4131208D01*
X-4550816Y4303877D01*
X-4385868Y4471517D01*
X-4200398Y4567834D01*
X-4065524Y4580382D01*
X-3969004Y4542485D01*
X-3893007Y4456125D01*
X-3866845Y4370832D01*
X-3856380Y4069486D01*
X-3882440Y3812794D01*
X-3924452Y3567226D01*
X-3944670Y3477971D01*
X-3957167Y3416554D01*
X-3936034Y3416554D01*
X-3904792Y3489147D01*
X-3867454Y3589578D01*
X-3759403Y3922725D01*
X-3728618Y4088180D01*
X-3728618Y4429455D01*
X-3701440Y4451858D01*
X-3527602Y4467555D01*
X-3245154Y4521200D01*
X-2995269Y4586732D01*
X-2723642Y4667402D01*
X-2408174Y4776368D01*
X-2104390Y4892497D01*
X-1854504Y5002580D01*
X-1833880Y5023713D01*
X-1794764Y5023713D01*
X-1794764Y4871059D01*
X-1781255Y4816805D01*
X-1669846Y4816805D01*
X-1668322Y5029301D01*
X-1599133Y5183225D01*
X-1499616Y5302859D01*
X-1401673Y5361838D01*
X-1322171Y5389524D01*
X-1235252Y5401665D01*
X-1137462Y5373319D01*
X-1072286Y5338114D01*
X-981913Y5258054D01*
X-882243Y5102707D01*
X-829513Y4984292D01*
X-782167Y4861864D01*
X-740918Y4730648D01*
X-740918Y4636465D01*
X-804773Y4545888D01*
X-943508Y4475734D01*
X-1126591Y4442714D01*
X-1278686Y4466285D01*
X-1354785Y4489551D01*
X-1470914Y4549394D01*
X-1598371Y4667656D01*
X-1669846Y4816805D01*
X-1781255Y4816805D01*
X-1751279Y4696409D01*
X-1693468Y4594047D01*
X-1546402Y4444746D01*
X-1365605Y4356303D01*
X-1250594Y4327296D01*
X-1232255Y4303877D01*
X-1166114Y4102963D01*
X-1080414Y3790442D01*
X-1057503Y3690010D01*
X-1035202Y3589578D01*
X-1002182Y3444494D01*
X-979525Y3288233D01*
X-945235Y3020364D01*
X-956462Y2797149D01*
X-1020775Y2540457D01*
X-1076909Y2399233D01*
X-1249426Y2094026D01*
X-1275994Y2015032D01*
X-1229817Y1827530D01*
X-1230579Y1714550D01*
X-1259332Y1591259D01*
X-1294282Y1521815D01*
X-1394663Y1431036D01*
X-1493316Y1415846D01*
X-1635963Y1429512D01*
X-1797761Y1508455D01*
X-1903425Y1588109D01*
X-1903425Y1617675D01*
X-1713280Y1723136D01*
X-1620469Y1788515D01*
X-1631746Y1807260D01*
X-1735023Y1775206D01*
X-1974037Y1717649D01*
X-2234742Y1655622D01*
X-2386888Y1630019D01*
X-2506370Y1609394D01*
X-2582926Y1597355D01*
X-2854045Y1564335D01*
X-3588613Y1563878D01*
X-3799230Y1587804D01*
X-4079138Y1632610D01*
X-4229049Y1684680D01*
X-4407611Y1790598D01*
X-4509312Y1848205D01*
X-4524502Y1832610D01*
X-4455312Y1721866D01*
X-4364177Y1635658D01*
X-4259783Y1561998D01*
X-4268012Y1535988D01*
X-4436770Y1419809D01*
X-4559706Y1382725D01*
X-4722672Y1381506D01*
X-4842205Y1410258D01*
X-4975606Y1474571D01*
X-5090109Y1580337D01*
X-5139385Y1694840D01*
X-5162651Y1866747D01*
X-5116779Y2087067D01*
X-5166512Y2160981D01*
X-5278272Y2283764D01*
X-5334863Y2384196D01*
X-5378196Y2529281D01*
X-5391454Y2733497D01*
X-5510948Y2733497D01*
X-5516981Y2579370D01*
X-5538724Y2557068D01*
X-5706973Y2519578D01*
X-5873038Y2548229D01*
X-5986830Y2599893D01*
X-6087668Y2695448D01*
X-6138824Y2785973D01*
X-6186474Y2938729D01*
X-6177127Y3054197D01*
X-6124194Y3164027D01*
X-6021578Y3269742D01*
X-5882284Y3340252D01*
X-5795213Y3352241D01*
X-5689600Y3317392D01*
X-5624423Y3310534D01*
X-5617464Y3360928D01*
X-5680710Y3425951D01*
X-5776518Y3452622D01*
X-5923838Y3440125D01*
X-6080709Y3362198D01*
X-6203899Y3232404D01*
X-6274358Y3088640D01*
X-6284366Y2875280D01*
X-6249314Y2734818D01*
X-6189370Y2607411D01*
X-6037275Y2450439D01*
X-5929680Y2388870D01*
X-5800090Y2345131D01*
X-5607050Y2345131D01*
X-5517134Y2389784D01*
X-5488889Y2389784D01*
X-5415026Y2239111D01*
X-5313730Y2100681D01*
X-5249621Y2045258D01*
X-5249621Y2023364D01*
X-5483199Y1945182D01*
X-5591810Y1922119D01*
X-5754420Y1895856D01*
X-5930138Y1909724D01*
X-6156756Y1967179D01*
X-6395770Y2086356D01*
X-6538214Y2197506D01*
X-6643319Y2317242D01*
X-6728002Y2434691D01*
X-6811619Y2607411D01*
X-6844944Y2709164D01*
X-6882993Y2852978D01*
X-7012563Y2852978D01*
X-7008164Y2808325D01*
X-6951319Y2575153D01*
X-6855663Y2373071D01*
X-6768185Y2239111D01*
X-6569608Y2030679D01*
X-6417513Y1924151D01*
X-6265418Y1846275D01*
X-6102451Y1788972D01*
X-5939485Y1751939D01*
X-5706770Y1739188D01*
X-5507024Y1767230D01*
X-5320233Y1822704D01*
X-5262524Y1833981D01*
X-5247944Y1658772D01*
X-5225948Y1585518D01*
X-5174538Y1491335D01*
X-5048605Y1364284D01*
X-4920996Y1285798D01*
X-4744415Y1223873D01*
X-4483658Y1224483D01*
X-4357725Y1273810D01*
X-4269638Y1319936D01*
X-4170984Y1413256D01*
X-4117848Y1499565D01*
X-4005630Y1485036D01*
X-3668826Y1425854D01*
X-2777998Y1424381D01*
X-2549855Y1453591D01*
X-2234742Y1509268D01*
X-2017471Y1562354D01*
X-1876247Y1412240D01*
X-1778457Y1344726D01*
X-1673656Y1295146D01*
X-1541221Y1260297D01*
X-1387246Y1268323D01*
X-1257503Y1335125D01*
X-1173378Y1421028D01*
X-1110894Y1558340D01*
X-1075080Y1736648D01*
X-1087678Y1875231D01*
X-1142898Y2044293D01*
X-1142898Y2088388D01*
X-1053693Y2183333D01*
X-967689Y2317242D01*
X-905713Y2451201D01*
X-851001Y2629763D01*
X-823264Y2763672D01*
X-823721Y3143148D01*
X-862076Y3388664D01*
X-946962Y3788511D01*
X-1035151Y4089603D01*
X-1111961Y4300321D01*
X-1101496Y4311091D01*
X-980643Y4327906D01*
X-961288Y4315002D01*
X-945794Y4150410D01*
X-903579Y3980942D01*
X-813511Y3823919D01*
X-622706Y3623056D01*
X-556260Y3582720D01*
X-556564Y3600704D01*
X-709015Y3798874D01*
X-781558Y3913225D01*
X-836218Y4013657D01*
X-880465Y4158742D01*
X-889812Y4332478D01*
X-872998Y4343146D01*
X-605129Y4067352D01*
X-409549Y3933139D01*
X-290830Y3871366D01*
X-148844Y3817315D01*
X-61925Y3776726D01*
X24993Y3746855D01*
X45618Y3729075D01*
X86055Y3729075D01*
X72593Y3751376D01*
X42976Y3751376D01*
X-246583Y3932072D01*
X-340106Y3991356D01*
X-453034Y4066844D01*
X-572516Y4158691D01*
X-679399Y4259224D01*
X-794816Y4381957D01*
X-795274Y4405274D01*
X-686612Y4490364D01*
X-518210Y4342231D01*
X-344373Y4253839D01*
X-170535Y4219346D01*
X-77876Y4197807D01*
X34798Y4197807D01*
X14122Y4217162D01*
X-170535Y4266387D01*
X-300939Y4312513D01*
X-420370Y4366463D01*
X-529082Y4437430D01*
X-629666Y4538218D01*
X-662533Y4705654D01*
X-698449Y4884216D01*
X-715416Y4962347D01*
X-799236Y5163210D01*
X-891286Y5308295D01*
X-990803Y5416956D01*
X-990346Y5431078D01*
X-800709Y5542686D01*
X-572516Y5777230D01*
X-469087Y5959094D01*
X-406196Y6123025D01*
X-335889Y6355791D01*
X-360680Y6493916D01*
X-360680Y6745020D01*
X-417474Y6960108D01*
X-495147Y7160971D01*
X-556260Y7276033D01*
X-556260Y7300518D01*
X-344373Y7301484D01*
X-181406Y7324039D01*
X264007Y7354214D01*
X631342Y7434224D01*
X698601Y7455255D01*
X785520Y7477252D01*
X872388Y7499807D01*
X1035354Y7548422D01*
X1285240Y7632750D01*
X1480820Y7704886D01*
X1501444Y7724597D01*
X1536141Y7724597D01*
X1970430Y7945374D01*
X2143506Y8051647D01*
X2295652Y8152028D01*
X2633065Y8413191D01*
X2918104Y8704630D01*
X3006750Y8827871D01*
X3029610Y8842400D01*
X3177590Y9069476D01*
X3284982Y9270339D01*
X3354882Y9419640D01*
X3354882Y9443669D01*
X3374898Y9482429D01*
X3420160Y9605162D01*
X3472129Y9817252D01*
X3505403Y10029291D01*
X3498646Y10565028D01*
X3464051Y10721238D01*
X3430676Y10851845D01*
X3345484Y11084001D01*
X3241294Y11263934D01*
X3126587Y11413236D01*
X2969209Y11552224D01*
X2741066Y11672112D01*
X2610713Y11700662D01*
X2545486Y11718137D01*
G37*
G36*
X-2099665Y7490256D02*
G01*
X-2180132Y7455662D01*
X-2231644Y7406538D01*
X-2294636Y7313066D01*
X-2298070Y7299299D01*
X-2146858Y7299299D01*
X-2106472Y7345121D01*
X-2017471Y7344105D01*
X-1918766Y7291273D01*
X-1827377Y7189368D01*
X-1827377Y7159904D01*
X-1886000Y7066991D01*
X-1947265Y7040930D01*
X-2030780Y7052411D01*
X-2090318Y7092492D01*
X-2144115Y7180072D01*
X-2146858Y7299299D01*
X-2298070Y7299299D01*
X-2329840Y7172147D01*
X-2318562Y6937756D01*
X-2269591Y6803847D01*
X-2208072Y6711238D01*
X-2122474Y6641592D01*
X-1995728Y6583527D01*
X-1853336Y6584035D01*
X-1751939Y6633006D01*
X-1672742Y6723024D01*
X-1619605Y6842353D01*
X-1619961Y7016445D01*
X-1674164Y7180986D01*
X-1772970Y7333589D01*
X-1897989Y7434478D01*
X-1974037Y7471765D01*
X-2039213Y7487970D01*
G37*
G36*
X-844143Y6628587D02*
G01*
X-920191Y6620611D01*
X-1170076Y6606692D01*
X-1338122Y6564731D01*
X-1485138Y6504990D01*
X-1582928Y6448399D01*
X-1730248Y6328003D01*
X-1814779Y6218123D01*
X-1873504Y6094831D01*
X-1883615Y6002578D01*
X-1818995Y6002578D01*
X-1794256Y6120993D01*
X-1718970Y6248298D01*
X-1626362Y6335877D01*
X-1521510Y6409893D01*
X-1343914Y6494221D01*
X-1159205Y6541922D01*
X-996238Y6563207D01*
X-855014Y6561988D01*
X-746353Y6534353D01*
X-659434Y6487820D01*
X-598881Y6422288D01*
X-586079Y6341160D01*
X-644753Y6217920D01*
X-755192Y6093815D01*
X-889355Y5995416D01*
X-1022400Y5927648D01*
X-1170076Y5874664D01*
X-1267866Y5850737D01*
X-1387348Y5822696D01*
X-1604619Y5823305D01*
X-1729841Y5862421D01*
X-1794357Y5918200D01*
X-1818995Y6002578D01*
X-1883615Y6002578D01*
X-1884324Y5996076D01*
X-1869592Y5915253D01*
X-1790801Y5825693D01*
X-1713280Y5785662D01*
X-1593799Y5756656D01*
X-1343914Y5757418D01*
X-1170076Y5795162D01*
X-1007110Y5850991D01*
X-838860Y5938012D01*
X-757224Y5994755D01*
X-592836Y6161074D01*
X-533603Y6272936D01*
X-521309Y6379718D01*
X-546557Y6475882D01*
X-622046Y6561734D01*
X-721156Y6609588D01*
G37*
G36*
X-5669381Y6307175D02*
G01*
X-5778906Y6273749D01*
X-5876544Y6166561D01*
X-5938725Y6032246D01*
X-5749340Y6032246D01*
X-5749340Y6073546D01*
X-5718403Y6149644D01*
X-5630722Y6195568D01*
X-5559247Y6194704D01*
X-5501894Y6162700D01*
X-5435295Y6059424D01*
X-5400395Y5951474D01*
X-5433872Y5885078D01*
X-5487720Y5841542D01*
X-5553456Y5813552D01*
X-5630011Y5828334D01*
X-5714390Y5910986D01*
X-5749340Y6032246D01*
X-5938725Y6032246D01*
X-5943193Y6022594D01*
X-5969660Y5843371D01*
X-5935268Y5670245D01*
X-5880252Y5546750D01*
X-5743905Y5407761D01*
X-5627370Y5369712D01*
X-5559247Y5369814D01*
X-5474868Y5393893D01*
X-5368899Y5495696D01*
X-5301538Y5636310D01*
X-5284571Y5794857D01*
X-5301589Y6011418D01*
X-5349189Y6134201D01*
X-5425897Y6237528D01*
X-5512003Y6287262D01*
X-5570118Y6305296D01*
G37*
G36*
X-3103930Y6162700D02*
G01*
X-3265119Y6156502D01*
X-3273704Y6129883D01*
X-3166211Y6082385D01*
X-3107588Y6019495D01*
X-3098342Y5933338D01*
X-3136493Y5855970D01*
X-3210407Y5804916D01*
X-3299460Y5780176D01*
X-3429812Y5791809D01*
X-3571087Y5839358D01*
X-3625240Y5832856D01*
X-3728364Y5676595D01*
X-3837736Y5571591D01*
X-3957320Y5532831D01*
X-4038244Y5562092D01*
X-4086504Y5607354D01*
X-4111294Y5684469D01*
X-4097528Y5772708D01*
X-4051503Y5873292D01*
X-4073956Y5896356D01*
X-4113733Y5888482D01*
X-4186885Y5743600D01*
X-4179112Y5583478D01*
X-4111193Y5486908D01*
X-4006189Y5431078D01*
X-3864406Y5433009D01*
X-3760266Y5484215D01*
X-3665118Y5579211D01*
X-3619957Y5670143D01*
X-3619957Y5705195D01*
X-3590798Y5716727D01*
X-3425291Y5659628D01*
X-3296716Y5645810D01*
X-3179978Y5674512D01*
X-3136493Y5698947D01*
X-3044291Y5772861D01*
X-2988360Y5870905D01*
X-2976422Y5990031D01*
X-3024124Y6103975D01*
G37*
G36*
X-5692241Y5224627D02*
G01*
X-5972048Y5132882D01*
X-6140043Y5047030D01*
X-6297980Y4937506D01*
X-6439255Y4783226D01*
X-6479946Y4665167D01*
X-6477964Y4647234D01*
X-6436868Y4647234D01*
X-6377635Y4763516D01*
X-6257848Y4890566D01*
X-6094374Y5003901D01*
X-5939485Y5076139D01*
X-5802528Y5124551D01*
X-5594858Y5179974D01*
X-5537504Y5177739D01*
X-5450586Y5158638D01*
X-5341924Y5132324D01*
X-5239207Y5079390D01*
X-5206136Y5013655D01*
X-5206136Y4968748D01*
X-5251043Y4845456D01*
X-5383276Y4709617D01*
X-5546547Y4596434D01*
X-5722213Y4512513D01*
X-5825744Y4477004D01*
X-5982919Y4451705D01*
X-6221933Y4464354D01*
X-6340856Y4501489D01*
X-6421526Y4584395D01*
X-6436868Y4647234D01*
X-6477964Y4647234D01*
X-6469024Y4565904D01*
X-6420002Y4492396D01*
X-6350254Y4445406D01*
X-6251803Y4411065D01*
X-6058966Y4384700D01*
X-5874308Y4399229D01*
X-5701588Y4446981D01*
X-5457596Y4574133D01*
X-5363667Y4647996D01*
X-5226050Y4783785D01*
X-5166309Y4873040D01*
X-5138724Y4976825D01*
X-5153812Y5051602D01*
X-5205018Y5133136D01*
X-5327751Y5194808D01*
X-5439714Y5222697D01*
G37*
G36*
X620115Y9385909D02*
G01*
X609193Y9376410D01*
X628446Y9346742D01*
X450646Y9191193D01*
X443890Y9190837D01*
X421487Y9210751D01*
X410565Y9201251D01*
X452831Y9152686D01*
X715060Y9176207D01*
X568502Y9049766D01*
X535228Y9079941D01*
X524306Y9070441D01*
X589026Y8995968D01*
X580694Y9035186D01*
X778560Y9207652D01*
X768858Y9218879D01*
X480568Y9193936D01*
X640334Y9331858D01*
X673912Y9301937D01*
X684834Y9311436D01*
G37*
G36*
X820572Y9155328D02*
G01*
X809650Y9145828D01*
X831951Y9113723D01*
X801268Y9086291D01*
X754380Y9045244D01*
X686206Y8986164D01*
X649376Y8955024D01*
X620725Y8981592D01*
X609803Y8972092D01*
X745794Y8815679D01*
X802792Y8862161D01*
X789279Y8877706D01*
X740308Y8849817D01*
X675081Y8924848D01*
X715924Y8961221D01*
X757986Y8997899D01*
X801217Y8948166D01*
X773684Y8917127D01*
X785164Y8903919D01*
X861669Y8970416D01*
X850137Y8983624D01*
X813866Y8959189D01*
X770636Y9008922D01*
X823772Y9054896D01*
X857656Y9083598D01*
X887120Y9056674D01*
X898042Y9066174D01*
G37*
G36*
X966927Y8922461D02*
G01*
X956157Y8921699D01*
X945387Y8920022D01*
X934618Y8917432D01*
X929233Y8915806D01*
X918565Y8911844D01*
X907999Y8906967D01*
X902766Y8904224D01*
X892403Y8897975D01*
X882192Y8890812D01*
X872236Y8882735D01*
X863041Y8874099D01*
X854659Y8865108D01*
X847191Y8855710D01*
X840587Y8846058D01*
X834898Y8836050D01*
X830021Y8825890D01*
X826058Y8815476D01*
X823010Y8804910D01*
X820775Y8794191D01*
X819454Y8783421D01*
X819048Y8772652D01*
X819150Y8767216D01*
X820064Y8756446D01*
X821842Y8745677D01*
X824484Y8735060D01*
X828040Y8724544D01*
X832510Y8714181D01*
X837844Y8704072D01*
X844092Y8694216D01*
X851204Y8684666D01*
X859180Y8675471D01*
X868121Y8666530D01*
X872998Y8662162D01*
X883615Y8653729D01*
X889406Y8649766D01*
X895451Y8646007D01*
X901801Y8642451D01*
X908507Y8639149D01*
X915517Y8636101D01*
X922883Y8633409D01*
X969670Y8673084D01*
X954684Y8690356D01*
X907694Y8663127D01*
X902208Y8665514D01*
X897077Y8668207D01*
X892200Y8671052D01*
X887628Y8674150D01*
X883361Y8677452D01*
X879297Y8680958D01*
X875487Y8684666D01*
X868476Y8692692D01*
X865327Y8696909D01*
X859739Y8705748D01*
X857300Y8710269D01*
X853287Y8719667D01*
X851662Y8724493D01*
X850290Y8729370D01*
X849172Y8734298D01*
X848360Y8739327D01*
X847852Y8744407D01*
X847598Y8749538D01*
X847953Y8759952D01*
X848563Y8765235D01*
X850646Y8775852D01*
X853948Y8786571D01*
X856081Y8791956D01*
X861212Y8802725D01*
X867664Y8813444D01*
X875385Y8824112D01*
X884428Y8834678D01*
X894791Y8845092D01*
X900480Y8850223D01*
X912266Y8859824D01*
X924001Y8868105D01*
X935583Y8875064D01*
X947013Y8880754D01*
X952703Y8883142D01*
X963879Y8886952D01*
X974902Y8889542D01*
X985672Y8890914D01*
X990955Y8891168D01*
X996137Y8891117D01*
X1001268Y8890762D01*
X1006348Y8890152D01*
X1011326Y8889238D01*
X1016253Y8888069D01*
X1021029Y8886596D01*
X1025753Y8884869D01*
X1030376Y8882837D01*
X1039368Y8878011D01*
X1043686Y8875166D01*
X1051966Y8868765D01*
X1055979Y8865158D01*
X1059840Y8861298D01*
X1067358Y8852662D01*
X1074318Y8842908D01*
X1077518Y8837676D01*
X1080414Y8832189D01*
X1083056Y8826449D01*
X1085342Y8820454D01*
X1087323Y8814206D01*
X1054100Y8771686D01*
X1114856Y8795258D01*
X1113129Y8802370D01*
X1111097Y8809329D01*
X1108760Y8816187D01*
X1106119Y8822842D01*
X1103223Y8829344D01*
X1100074Y8835745D01*
X1096619Y8842044D01*
X1088898Y8854135D01*
X1084630Y8860028D01*
X1075385Y8871458D01*
X1066901Y8880551D01*
X1058011Y8888780D01*
X1048816Y8896096D01*
X1039317Y8902496D01*
X1034491Y8905392D01*
X1024585Y8910472D01*
X1019556Y8912707D01*
X1009294Y8916466D01*
X998880Y8919311D01*
X988364Y8921242D01*
X977696Y8922308D01*
G37*
G36*
X-8207502Y5448046D02*
G01*
X-8219186Y5439562D01*
X-8202625Y5408269D01*
X-8393277Y5268823D01*
X-8400034Y5269077D01*
X-8420608Y5290870D01*
X-8432292Y5282387D01*
X-8394446Y5230266D01*
X-8131149Y5230825D01*
X-8288172Y5117693D01*
X-8318703Y5150612D01*
X-8330438Y5142128D01*
X-8272424Y5062270D01*
X-8277301Y5102047D01*
X-8065160Y5256682D01*
X-8073898Y5268671D01*
X-8363254Y5268976D01*
X-8192008Y5392420D01*
X-8161223Y5359704D01*
X-8149488Y5368239D01*
G37*
G36*
X-8027873Y5200853D02*
G01*
X-8039608Y5192318D01*
X-8020151Y5158435D01*
X-8047583Y5137861D01*
X-8097774Y5101082D01*
X-8176514Y5044084D01*
X-8215884Y5016246D01*
X-8242096Y5045202D01*
X-8253831Y5036718D01*
X-8132013Y4869027D01*
X-8071154Y4910378D01*
X-8083245Y4927041D01*
X-8134451Y4903520D01*
X-8192871Y4983937D01*
X-8171129Y5000294D01*
X-8143494Y5020716D01*
X-8103971Y5049520D01*
X-8065211Y4996180D01*
X-8095386Y4967681D01*
X-8085074Y4953508D01*
X-8003082Y5013096D01*
X-8013395Y5027269D01*
X-8051647Y5006035D01*
X-8090408Y5059375D01*
X-8052003Y5087213D01*
X-7997190Y5126177D01*
X-7970164Y5096764D01*
X-7958480Y5105298D01*
G37*
G36*
X-7913166Y4956302D02*
G01*
X-7924038Y4955540D01*
X-7929524Y4954879D01*
X-7940497Y4952796D01*
X-7951470Y4949748D01*
X-7962442Y4945837D01*
X-7973364Y4941011D01*
X-7984185Y4935220D01*
X-7994853Y4928514D01*
X-8005216Y4920945D01*
X-8014766Y4912918D01*
X-8023453Y4904486D01*
X-8031276Y4895596D01*
X-8038287Y4886350D01*
X-8044434Y4876749D01*
X-8049717Y4866843D01*
X-8054136Y4856734D01*
X-8057692Y4846370D01*
X-8060385Y4835804D01*
X-8062163Y4825136D01*
X-8063128Y4814366D01*
X-8063179Y4803546D01*
X-8062315Y4792675D01*
X-8060588Y4781854D01*
X-8057946Y4771034D01*
X-8054441Y4760366D01*
X-8049971Y4749850D01*
X-8047431Y4744618D01*
X-8041640Y4734356D01*
X-8034883Y4724349D01*
X-8027314Y4714595D01*
X-8018627Y4704994D01*
X-8013852Y4700270D01*
X-8008772Y4695698D01*
X-8003387Y4691227D01*
X-7997698Y4686960D01*
X-7991652Y4682845D01*
X-7985252Y4678984D01*
X-7978546Y4675378D01*
X-7971434Y4672025D01*
X-7921396Y4707483D01*
X-7934807Y4725974D01*
X-7984032Y4702911D01*
X-7989214Y4705807D01*
X-7994142Y4708906D01*
X-7998714Y4712208D01*
X-8002981Y4715662D01*
X-8006994Y4719320D01*
X-8014208Y4727194D01*
X-8020456Y4735830D01*
X-8023250Y4740300D01*
X-8025790Y4744923D01*
X-8030057Y4754321D01*
X-8031784Y4759147D01*
X-8033258Y4764024D01*
X-8034477Y4768951D01*
X-8035391Y4773930D01*
X-8036052Y4778959D01*
X-8036407Y4784039D01*
X-8036509Y4789170D01*
X-8035848Y4799431D01*
X-8035086Y4804613D01*
X-8034020Y4809794D01*
X-8032648Y4815027D01*
X-8029041Y4825390D01*
X-8026755Y4830622D01*
X-8021320Y4840935D01*
X-8014614Y4851146D01*
X-8006638Y4861153D01*
X-8002168Y4866132D01*
X-7992211Y4875885D01*
X-7986775Y4880660D01*
X-7980984Y4885334D01*
X-7968538Y4894376D01*
X-7962290Y4898491D01*
X-7949895Y4905705D01*
X-7943799Y4908854D01*
X-7937753Y4911648D01*
X-7931759Y4914138D01*
X-7925816Y4916322D01*
X-7919974Y4918202D01*
X-7908493Y4920996D01*
X-7902854Y4921961D01*
X-7897317Y4922621D01*
X-7886496Y4923078D01*
X-7881213Y4922875D01*
X-7875981Y4922367D01*
X-7870901Y4921554D01*
X-7865922Y4920488D01*
X-7861046Y4919167D01*
X-7856270Y4917541D01*
X-7851597Y4915662D01*
X-7847025Y4913528D01*
X-7842605Y4911140D01*
X-7838287Y4908448D01*
X-7830058Y4902352D01*
X-7826146Y4898898D01*
X-7818678Y4891278D01*
X-7811770Y4882692D01*
X-7805267Y4872786D01*
X-7802321Y4867503D01*
X-7799628Y4862017D01*
X-7797190Y4856327D01*
X-7795056Y4850384D01*
X-7793329Y4844186D01*
X-7791907Y4837785D01*
X-7828686Y4798364D01*
X-7766100Y4816500D01*
X-7767218Y4823764D01*
X-7768640Y4830876D01*
X-7770368Y4837887D01*
X-7772400Y4844745D01*
X-7774686Y4851501D01*
X-7777327Y4858156D01*
X-7780223Y4864709D01*
X-7783372Y4871110D01*
X-7786827Y4877460D01*
X-7794548Y4889855D01*
X-7798765Y4895900D01*
X-7806436Y4905705D01*
X-7814564Y4914646D01*
X-7823098Y4922723D01*
X-7831988Y4929936D01*
X-7841234Y4936337D01*
X-7850835Y4941824D01*
X-7855712Y4944262D01*
X-7865719Y4948428D01*
X-7870799Y4950206D01*
X-7881162Y4953050D01*
X-7886395Y4954168D01*
X-7897012Y4955692D01*
X-7907731Y4956302D01*
G37*
G36*
X-2660802Y4182110D02*
G01*
X-2666136Y4179062D01*
X-2664968Y4119626D01*
X-2664968Y3913124D01*
X-2630678Y3913124D01*
X-2630678Y4033926D01*
X-2623870Y4039666D01*
X-2617419Y4044442D01*
X-2611221Y4048251D01*
X-2605328Y4051249D01*
X-2599639Y4053433D01*
X-2594152Y4054906D01*
X-2588768Y4055719D01*
X-2583434Y4055973D01*
X-2578658Y4055821D01*
X-2573985Y4055262D01*
X-2569413Y4054297D01*
X-2564942Y4052976D01*
X-2560624Y4051249D01*
X-2556459Y4049115D01*
X-2552496Y4046575D01*
X-2548686Y4043578D01*
X-2545080Y4040174D01*
X-2541727Y4036314D01*
X-2538577Y4032046D01*
X-2535682Y4027271D01*
X-2533091Y4022039D01*
X-2530805Y4016349D01*
X-2528773Y4010202D01*
X-2527096Y4003548D01*
X-2525776Y3996385D01*
X-2524810Y3988714D01*
X-2524201Y3980484D01*
X-2523998Y3971798D01*
X-2524201Y3963365D01*
X-2524760Y3955440D01*
X-2525623Y3947972D01*
X-2526893Y3941013D01*
X-2528468Y3934510D01*
X-2530348Y3928465D01*
X-2532532Y3922928D01*
X-2535021Y3917797D01*
X-2537764Y3913174D01*
X-2540812Y3908907D01*
X-2544114Y3905148D01*
X-2547620Y3901795D01*
X-2551379Y3898849D01*
X-2555341Y3896309D01*
X-2559507Y3894226D01*
X-2563876Y3892499D01*
X-2568448Y3891178D01*
X-2573172Y3890264D01*
X-2578049Y3889705D01*
X-2583078Y3889501D01*
X-2589682Y3889806D01*
X-2595981Y3890670D01*
X-2601925Y3892245D01*
X-2607716Y3894582D01*
X-2613406Y3897782D01*
X-2619044Y3901897D01*
X-2624785Y3906977D01*
X-2630678Y3913124D01*
X-2664968Y3913124D01*
X-2664968Y3890264D01*
X-2698902Y3886454D01*
X-2698902Y3873500D01*
X-2634081Y3869334D01*
X-2631795Y3897884D01*
X-2628036Y3893362D01*
X-2624074Y3889197D01*
X-2619959Y3885387D01*
X-2615692Y3881882D01*
X-2611170Y3878783D01*
X-2606497Y3876040D01*
X-2601569Y3873652D01*
X-2596388Y3871722D01*
X-2591003Y3870198D01*
X-2585313Y3869080D01*
X-2579370Y3868369D01*
X-2573121Y3868165D01*
X-2567736Y3868318D01*
X-2562453Y3868775D01*
X-2557322Y3869588D01*
X-2552344Y3870655D01*
X-2547467Y3872026D01*
X-2542743Y3873652D01*
X-2538222Y3875582D01*
X-2533802Y3877818D01*
X-2529586Y3880307D01*
X-2525572Y3883050D01*
X-2521661Y3886047D01*
X-2517952Y3889298D01*
X-2514447Y3892804D01*
X-2507996Y3900525D01*
X-2502357Y3909161D01*
X-2499868Y3913784D01*
X-2497582Y3918610D01*
X-2493619Y3928922D01*
X-2491994Y3934358D01*
X-2490622Y3939997D01*
X-2488590Y3951732D01*
X-2487930Y3957878D01*
X-2487422Y3970629D01*
X-2487574Y3977487D01*
X-2487980Y3984193D01*
X-2488692Y3990644D01*
X-2489657Y3996944D01*
X-2490876Y4003040D01*
X-2492400Y4008932D01*
X-2494127Y4014571D01*
X-2496108Y4020058D01*
X-2498293Y4025290D01*
X-2503424Y4035145D01*
X-2509418Y4044035D01*
X-2512720Y4048099D01*
X-2519883Y4055516D01*
X-2523744Y4058818D01*
X-2527808Y4061917D01*
X-2532024Y4064711D01*
X-2536393Y4067200D01*
X-2540965Y4069435D01*
X-2545638Y4071416D01*
X-2550464Y4073093D01*
X-2555443Y4074464D01*
X-2560523Y4075531D01*
X-2565755Y4076344D01*
X-2571140Y4076801D01*
X-2576576Y4076954D01*
X-2581402Y4076801D01*
X-2586177Y4076395D01*
X-2590901Y4075633D01*
X-2595524Y4074515D01*
X-2600147Y4073042D01*
X-2604719Y4071162D01*
X-2609240Y4068826D01*
X-2613761Y4066082D01*
X-2618181Y4062831D01*
X-2622651Y4059072D01*
X-2627071Y4054754D01*
X-2631440Y4049928D01*
X-2631440Y4148937D01*
X-2596388Y4152036D01*
X-2596388Y4164584D01*
G37*
G36*
X-2946552Y4176014D02*
G01*
X-2951835Y4175556D01*
X-2956814Y4174185D01*
X-2961335Y4171950D01*
X-2965297Y4168952D01*
X-2968599Y4165244D01*
X-2971088Y4160926D01*
X-2972663Y4155948D01*
X-2973171Y4150512D01*
X-2972663Y4145127D01*
X-2971088Y4140149D01*
X-2968599Y4135780D01*
X-2965297Y4131970D01*
X-2961335Y4128871D01*
X-2956814Y4126534D01*
X-2951835Y4125061D01*
X-2946552Y4124604D01*
X-2940964Y4125061D01*
X-2935884Y4126534D01*
X-2931261Y4128871D01*
X-2927299Y4131970D01*
X-2923997Y4135780D01*
X-2921558Y4140149D01*
X-2920034Y4145127D01*
X-2919476Y4150512D01*
X-2920034Y4155948D01*
X-2921558Y4160926D01*
X-2923997Y4165244D01*
X-2927299Y4168952D01*
X-2931261Y4171950D01*
X-2935884Y4174185D01*
X-2940964Y4175556D01*
G37*
G36*
X-2157476Y4159250D02*
G01*
X-2164384Y4159046D01*
X-2171090Y4158538D01*
X-2177491Y4157675D01*
X-2183739Y4156506D01*
X-2189734Y4154982D01*
X-2195474Y4153204D01*
X-2201062Y4151122D01*
X-2211578Y4146245D01*
X-2216607Y4143400D01*
X-2221382Y4140403D01*
X-2226056Y4137151D01*
X-2223363Y4082694D01*
X-2201672Y4082694D01*
X-2191004Y4132579D01*
X-2183028Y4136440D01*
X-2174900Y4139082D01*
X-2166366Y4140504D01*
X-2157120Y4140962D01*
X-2150922Y4140758D01*
X-2144979Y4140200D01*
X-2139289Y4139184D01*
X-2133854Y4137863D01*
X-2128723Y4136085D01*
X-2123897Y4133951D01*
X-2119477Y4131462D01*
X-2115362Y4128566D01*
X-2111705Y4125315D01*
X-2108403Y4121708D01*
X-2105558Y4117695D01*
X-2103170Y4113326D01*
X-2101291Y4108602D01*
X-2099919Y4103471D01*
X-2099106Y4098036D01*
X-2098802Y4092194D01*
X-2099157Y4085742D01*
X-2100224Y4079697D01*
X-2101951Y4074109D01*
X-2104339Y4068826D01*
X-2107438Y4063949D01*
X-2111146Y4059377D01*
X-2115464Y4055110D01*
X-2120442Y4051147D01*
X-2125980Y4047439D01*
X-2132076Y4043984D01*
X-2138781Y4040733D01*
X-2162810Y4031234D01*
X-2178456Y4024579D01*
X-2185517Y4021175D01*
X-2192070Y4017721D01*
X-2198166Y4014215D01*
X-2203805Y4010660D01*
X-2208936Y4006951D01*
X-2213660Y4003192D01*
X-2217928Y3999331D01*
X-2221788Y3995369D01*
X-2225192Y3991254D01*
X-2228189Y3987037D01*
X-2230831Y3982618D01*
X-2233066Y3978046D01*
X-2234946Y3973322D01*
X-2236419Y3968394D01*
X-2237587Y3963263D01*
X-2238400Y3957980D01*
X-2238857Y3952443D01*
X-2239010Y3946651D01*
X-2238806Y3940556D01*
X-2238197Y3934663D01*
X-2237181Y3929024D01*
X-2235758Y3923588D01*
X-2233980Y3918356D01*
X-2231796Y3913378D01*
X-2229256Y3908602D01*
X-2226411Y3904081D01*
X-2223160Y3899814D01*
X-2219604Y3895750D01*
X-2215743Y3891991D01*
X-2211578Y3888435D01*
X-2207107Y3885184D01*
X-2202332Y3882186D01*
X-2197252Y3879443D01*
X-2191918Y3876954D01*
X-2186330Y3874719D01*
X-2174443Y3871163D01*
X-2168093Y3869842D01*
X-2161540Y3868775D01*
X-2154834Y3868013D01*
X-2147874Y3867556D01*
X-2140712Y3867404D01*
X-2132838Y3867607D01*
X-2125065Y3868216D01*
X-2117394Y3869131D01*
X-2109825Y3870401D01*
X-2102510Y3872026D01*
X-2095398Y3873906D01*
X-2088591Y3875989D01*
X-2082038Y3878376D01*
X-2075840Y3880916D01*
X-2069998Y3883609D01*
X-2064562Y3886504D01*
X-2059584Y3889501D01*
X-2062225Y3948176D01*
X-2083562Y3948176D01*
X-2094230Y3896004D01*
X-2099208Y3893464D01*
X-2104186Y3891330D01*
X-2109216Y3889552D01*
X-2114397Y3888130D01*
X-2119833Y3887012D01*
X-2125522Y3886301D01*
X-2131568Y3885844D01*
X-2138070Y3885692D01*
X-2145436Y3885895D01*
X-2152497Y3886555D01*
X-2159203Y3887622D01*
X-2165502Y3889095D01*
X-2171395Y3890975D01*
X-2176881Y3893261D01*
X-2181910Y3895953D01*
X-2186533Y3899052D01*
X-2190648Y3902557D01*
X-2194255Y3906469D01*
X-2197404Y3910736D01*
X-2199995Y3915410D01*
X-2202027Y3920490D01*
X-2203500Y3925925D01*
X-2204415Y3931716D01*
X-2204720Y3937863D01*
X-2204415Y3944365D01*
X-2203399Y3950309D01*
X-2201773Y3955796D01*
X-2199386Y3960825D01*
X-2196287Y3965498D01*
X-2192426Y3969867D01*
X-2187803Y3974033D01*
X-2182368Y3977944D01*
X-2176119Y3981704D01*
X-2169007Y3985412D01*
X-2161032Y3989070D01*
X-2136495Y3999229D01*
X-2123948Y4004716D01*
X-2112365Y4010609D01*
X-2106930Y4013758D01*
X-2101799Y4017060D01*
X-2096973Y4020515D01*
X-2092401Y4024122D01*
X-2088184Y4027881D01*
X-2084222Y4031792D01*
X-2080615Y4035907D01*
X-2077364Y4040225D01*
X-2074418Y4044746D01*
X-2071878Y4049471D01*
X-2069642Y4054398D01*
X-2067814Y4059580D01*
X-2066391Y4064965D01*
X-2065375Y4070604D01*
X-2064715Y4076496D01*
X-2064512Y4082694D01*
X-2064715Y4088587D01*
X-2065324Y4094327D01*
X-2066340Y4099864D01*
X-2067763Y4105148D01*
X-2069490Y4110228D01*
X-2071624Y4115054D01*
X-2074113Y4119676D01*
X-2076907Y4124045D01*
X-2080056Y4128160D01*
X-2083511Y4132072D01*
X-2087270Y4135729D01*
X-2091283Y4139082D01*
X-2095601Y4142232D01*
X-2100122Y4145127D01*
X-2104948Y4147769D01*
X-2110028Y4150156D01*
X-2115261Y4152239D01*
X-2120747Y4154068D01*
X-2126437Y4155643D01*
X-2132330Y4156913D01*
X-2138375Y4157929D01*
X-2144623Y4158691D01*
X-2150973Y4159097D01*
G37*
G36*
X-1611122Y4152747D02*
G01*
X-1618386Y4152646D01*
X-1625396Y4152188D01*
X-1632102Y4151477D01*
X-1638503Y4150512D01*
X-1644599Y4149242D01*
X-1650441Y4147769D01*
X-1655927Y4145991D01*
X-1661160Y4144010D01*
X-1666036Y4141774D01*
X-1670659Y4139285D01*
X-1674926Y4136644D01*
X-1678939Y4133697D01*
X-1682597Y4130598D01*
X-1686001Y4127296D01*
X-1689049Y4123842D01*
X-1691792Y4120134D01*
X-1694180Y4116273D01*
X-1696313Y4112260D01*
X-1698091Y4108094D01*
X-1699564Y4103725D01*
X-1700682Y4099255D01*
X-1701546Y4094632D01*
X-1702003Y4089857D01*
X-1702098Y4083405D01*
X-1664868Y4083405D01*
X-1664614Y4090162D01*
X-1663852Y4096410D01*
X-1662582Y4102201D01*
X-1660804Y4107434D01*
X-1658569Y4112260D01*
X-1655775Y4116578D01*
X-1652473Y4120489D01*
X-1648714Y4123893D01*
X-1644396Y4126890D01*
X-1639570Y4129481D01*
X-1634236Y4131614D01*
X-1628343Y4133342D01*
X-1621993Y4134713D01*
X-1615084Y4135628D01*
X-1607667Y4136186D01*
X-1599692Y4136390D01*
X-1570329Y4136390D01*
X-1569770Y4095699D01*
X-1569618Y4026662D01*
X-1599031Y4026814D01*
X-1605940Y4027220D01*
X-1612493Y4027881D01*
X-1618589Y4028846D01*
X-1624330Y4030065D01*
X-1629664Y4031589D01*
X-1634591Y4033367D01*
X-1639163Y4035450D01*
X-1643329Y4037837D01*
X-1647139Y4040479D01*
X-1650542Y4043426D01*
X-1653590Y4046677D01*
X-1656232Y4050182D01*
X-1658569Y4054043D01*
X-1660499Y4058158D01*
X-1662074Y4062628D01*
X-1663293Y4067352D01*
X-1664157Y4072382D01*
X-1664665Y4077766D01*
X-1664868Y4083405D01*
X-1702098Y4083405D01*
X-1701952Y4079544D01*
X-1701292Y4074210D01*
X-1700123Y4068978D01*
X-1698447Y4063847D01*
X-1696313Y4058818D01*
X-1693672Y4053992D01*
X-1690471Y4049369D01*
X-1686763Y4044899D01*
X-1682496Y4040682D01*
X-1677619Y4036720D01*
X-1672183Y4033012D01*
X-1666189Y4029608D01*
X-1659534Y4026509D01*
X-1652320Y4023766D01*
X-1644396Y4021429D01*
X-1635912Y4019397D01*
X-1644142Y4018076D01*
X-1651914Y4016451D01*
X-1659229Y4014571D01*
X-1666036Y4012387D01*
X-1672386Y4009999D01*
X-1678279Y4007307D01*
X-1683715Y4004411D01*
X-1688693Y4001312D01*
X-1693265Y3997960D01*
X-1697380Y3994404D01*
X-1701038Y3990695D01*
X-1704339Y3986733D01*
X-1707184Y3982669D01*
X-1709623Y3978351D01*
X-1711706Y3973931D01*
X-1713382Y3969359D01*
X-1714652Y3964635D01*
X-1715566Y3959758D01*
X-1716074Y3954779D01*
X-1716269Y3949344D01*
X-1676654Y3949344D01*
X-1676450Y3955186D01*
X-1675892Y3960723D01*
X-1674926Y3966006D01*
X-1673555Y3970934D01*
X-1671828Y3975608D01*
X-1669643Y3979976D01*
X-1667103Y3984040D01*
X-1664106Y3987800D01*
X-1660702Y3991254D01*
X-1656842Y3994404D01*
X-1652574Y3997299D01*
X-1647850Y3999839D01*
X-1642668Y4002125D01*
X-1637080Y4004056D01*
X-1630984Y4005732D01*
X-1624482Y4007104D01*
X-1617472Y4008170D01*
X-1610004Y4008932D01*
X-1602028Y4009390D01*
X-1569618Y4009542D01*
X-1569720Y3941876D01*
X-1570329Y3890264D01*
X-1605432Y3890416D01*
X-1612696Y3890873D01*
X-1619554Y3891686D01*
X-1626057Y3892753D01*
X-1632153Y3894124D01*
X-1637842Y3895801D01*
X-1643176Y3897782D01*
X-1648104Y3900068D01*
X-1652625Y3902659D01*
X-1656791Y3905504D01*
X-1660550Y3908653D01*
X-1663903Y3912057D01*
X-1666900Y3915765D01*
X-1669491Y3919778D01*
X-1671675Y3923995D01*
X-1673453Y3928567D01*
X-1674875Y3933342D01*
X-1675841Y3938422D01*
X-1676450Y3943756D01*
X-1676654Y3949344D01*
X-1716269Y3949344D01*
X-1715820Y3941572D01*
X-1715211Y3937508D01*
X-1713230Y3929481D01*
X-1711858Y3925570D01*
X-1710232Y3921709D01*
X-1706118Y3914241D01*
X-1703628Y3910634D01*
X-1700885Y3907129D01*
X-1697888Y3903726D01*
X-1694535Y3900424D01*
X-1686966Y3894328D01*
X-1682699Y3891483D01*
X-1678127Y3888841D01*
X-1673250Y3886352D01*
X-1668068Y3884066D01*
X-1662531Y3881932D01*
X-1656638Y3880053D01*
X-1650441Y3878376D01*
X-1643888Y3876903D01*
X-1629714Y3874770D01*
X-1622094Y3874058D01*
X-1614119Y3873652D01*
X-1605788Y3873500D01*
X-1491894Y3873500D01*
X-1491894Y3887978D01*
X-1530705Y3892194D01*
X-1531264Y3926890D01*
X-1531467Y3961841D01*
X-1531366Y4086047D01*
X-1530705Y4134104D01*
X-1491894Y4138320D01*
X-1491894Y4152747D01*
G37*
G36*
X-3084423Y4128770D02*
G01*
X-3082137Y4071213D01*
X-3138170Y4071213D01*
X-3138170Y4052976D01*
X-3081782Y4052976D01*
X-3081782Y3918458D01*
X-3082188Y3910787D01*
X-3083458Y3904234D01*
X-3085439Y3898849D01*
X-3088233Y3894531D01*
X-3091637Y3891279D01*
X-3095752Y3888994D01*
X-3100476Y3887673D01*
X-3105810Y3887215D01*
X-3112871Y3887927D01*
X-3119628Y3890111D01*
X-3126638Y3893820D01*
X-3134360Y3899052D01*
X-3142742Y3889501D01*
X-3138474Y3884777D01*
X-3133699Y3880561D01*
X-3128365Y3876903D01*
X-3122523Y3873855D01*
X-3116224Y3871417D01*
X-3109417Y3869639D01*
X-3102102Y3868521D01*
X-3094329Y3868165D01*
X-3087166Y3868470D01*
X-3080512Y3869436D01*
X-3074416Y3871061D01*
X-3068878Y3873347D01*
X-3063951Y3876344D01*
X-3059582Y3880002D01*
X-3055874Y3884320D01*
X-3052775Y3889400D01*
X-3050336Y3895191D01*
X-3048558Y3901694D01*
X-3047492Y3908907D01*
X-3047136Y3916934D01*
X-3047492Y3951579D01*
X-3047492Y4052976D01*
X-3012084Y4052976D01*
X-3012084Y4067810D01*
X-3049371Y4072382D01*
X-3060446Y4128770D01*
G37*
G36*
X-2361692Y4076954D02*
G01*
X-2368092Y4076801D01*
X-2374138Y4076344D01*
X-2379878Y4075582D01*
X-2385263Y4074464D01*
X-2390292Y4073042D01*
X-2395016Y4071264D01*
X-2399385Y4069130D01*
X-2403398Y4066641D01*
X-2407107Y4063796D01*
X-2410510Y4060596D01*
X-2413558Y4056938D01*
X-2416302Y4052925D01*
X-2418689Y4048506D01*
X-2420772Y4043629D01*
X-2422499Y4038396D01*
X-2423922Y4032656D01*
X-2425039Y4026509D01*
X-2425852Y4019905D01*
X-2426309Y4012844D01*
X-2426462Y3983228D01*
X-2392172Y3983228D01*
X-2370785Y3976674D01*
X-2353665Y3970629D01*
X-2345182Y3967073D01*
X-2337816Y3963415D01*
X-2331516Y3959707D01*
X-2326284Y3955897D01*
X-2321915Y3952087D01*
X-2318461Y3948226D01*
X-2315718Y3944315D01*
X-2313686Y3940403D01*
X-2312212Y3936542D01*
X-2311298Y3932631D01*
X-2310790Y3928770D01*
X-2310638Y3924960D01*
X-2311298Y3917086D01*
X-2313228Y3910380D01*
X-2316226Y3904792D01*
X-2320290Y3900322D01*
X-2325268Y3896868D01*
X-2331059Y3894429D01*
X-2337511Y3893007D01*
X-2344521Y3892550D01*
X-2349906Y3892854D01*
X-2354986Y3893769D01*
X-2360015Y3895445D01*
X-2365197Y3897884D01*
X-2370785Y3901186D01*
X-2377033Y3905402D01*
X-2392172Y3916934D01*
X-2392172Y3983228D01*
X-2426462Y3983228D01*
X-2426462Y3914648D01*
X-2426716Y3907790D01*
X-2427528Y3902100D01*
X-2428748Y3897528D01*
X-2430526Y3893870D01*
X-2432710Y3891178D01*
X-2435301Y3889349D01*
X-2438298Y3888333D01*
X-2441702Y3887978D01*
X-2446477Y3888689D01*
X-2450642Y3890670D01*
X-2454554Y3893921D01*
X-2458466Y3898239D01*
X-2466086Y3890264D01*
X-2462428Y3884879D01*
X-2458516Y3880358D01*
X-2454402Y3876649D01*
X-2450033Y3873754D01*
X-2445461Y3871569D01*
X-2440635Y3870045D01*
X-2435555Y3869182D01*
X-2430272Y3868928D01*
X-2422906Y3869486D01*
X-2416251Y3871214D01*
X-2410307Y3873957D01*
X-2405176Y3877716D01*
X-2400808Y3882440D01*
X-2397302Y3888079D01*
X-2394661Y3894480D01*
X-2392934Y3901694D01*
X-2382113Y3891381D01*
X-2377084Y3886962D01*
X-2372156Y3882999D01*
X-2367330Y3879545D01*
X-2362555Y3876497D01*
X-2357729Y3873957D01*
X-2352751Y3871874D01*
X-2347620Y3870248D01*
X-2342235Y3869080D01*
X-2336546Y3868420D01*
X-2330450Y3868165D01*
X-2324811Y3868369D01*
X-2319324Y3868978D01*
X-2314041Y3869994D01*
X-2308961Y3871417D01*
X-2304135Y3873246D01*
X-2299563Y3875481D01*
X-2295347Y3878122D01*
X-2291384Y3881120D01*
X-2287828Y3884523D01*
X-2284628Y3888333D01*
X-2281885Y3892499D01*
X-2279548Y3897122D01*
X-2277668Y3902049D01*
X-2276348Y3907383D01*
X-2275484Y3913124D01*
X-2275179Y3919220D01*
X-2275382Y3923944D01*
X-2275941Y3928465D01*
X-2276906Y3932885D01*
X-2278329Y3937152D01*
X-2280208Y3941267D01*
X-2282647Y3945331D01*
X-2285644Y3949293D01*
X-2289251Y3953103D01*
X-2293467Y3956913D01*
X-2298395Y3960622D01*
X-2304034Y3964330D01*
X-2310384Y3967987D01*
X-2317546Y3971594D01*
X-2325573Y3975201D01*
X-2334412Y3978859D01*
X-2349347Y3984345D01*
X-2360777Y3988003D01*
X-2373122Y3991457D01*
X-2392172Y3996182D01*
X-2392172Y4009136D01*
X-2391918Y4018787D01*
X-2391156Y4027271D01*
X-2389886Y4034586D01*
X-2388057Y4040835D01*
X-2385669Y4046118D01*
X-2382723Y4050487D01*
X-2379218Y4053941D01*
X-2375052Y4056684D01*
X-2370328Y4058665D01*
X-2364943Y4059986D01*
X-2358898Y4060698D01*
X-2352192Y4060951D01*
X-2346655Y4060748D01*
X-2340914Y4060088D01*
X-2334920Y4059021D01*
X-2328570Y4057497D01*
X-2320544Y4028948D01*
X-2317343Y4020464D01*
X-2312771Y4014368D01*
X-2306878Y4010710D01*
X-2299563Y4009542D01*
X-2291994Y4010558D01*
X-2286406Y4013657D01*
X-2282698Y4018686D01*
X-2280920Y4025544D01*
X-2282545Y4031386D01*
X-2284679Y4036923D01*
X-2287371Y4042156D01*
X-2290521Y4047032D01*
X-2294178Y4051604D01*
X-2298293Y4055872D01*
X-2302865Y4059732D01*
X-2307894Y4063237D01*
X-2313279Y4066387D01*
X-2319121Y4069130D01*
X-2325319Y4071467D01*
X-2331923Y4073398D01*
X-2338882Y4074972D01*
X-2346147Y4076039D01*
X-2353767Y4076750D01*
G37*
G36*
X-2849778Y4076954D02*
G01*
X-2859227Y4075887D01*
X-2867812Y4072839D01*
X-2874873Y4067962D01*
X-2879852Y4061307D01*
X-2879547Y4055059D01*
X-2878531Y4049471D01*
X-2876804Y4044594D01*
X-2874314Y4040479D01*
X-2871063Y4037177D01*
X-2866999Y4034739D01*
X-2862072Y4033265D01*
X-2856230Y4032758D01*
X-2849118Y4033570D01*
X-2842564Y4035958D01*
X-2836367Y4039666D01*
X-2830322Y4044594D01*
X-2825394Y4049115D01*
X-2821228Y4045915D01*
X-2817266Y4042460D01*
X-2813608Y4038803D01*
X-2810154Y4034891D01*
X-2806903Y4030776D01*
X-2800959Y4021734D01*
X-2795778Y4011523D01*
X-2793441Y4005986D01*
X-2789174Y3993896D01*
X-2789275Y3939184D01*
X-2789936Y3891381D01*
X-2824581Y3886454D01*
X-2824581Y3873500D01*
X-2723286Y3873500D01*
X-2723286Y3886454D01*
X-2753715Y3891026D01*
X-2754528Y3961129D01*
X-2754325Y4006189D01*
X-2753360Y4037736D01*
X-2720187Y4041140D01*
X-2720187Y4053687D01*
X-2778912Y4076547D01*
X-2784602Y4072737D01*
X-2788818Y4022445D01*
X-2791460Y4028744D01*
X-2794406Y4034637D01*
X-2797505Y4040225D01*
X-2800858Y4045458D01*
X-2804312Y4050284D01*
X-2807970Y4054754D01*
X-2811780Y4058869D01*
X-2815691Y4062577D01*
X-2819755Y4065879D01*
X-2823870Y4068775D01*
X-2828086Y4071213D01*
X-2832354Y4073245D01*
X-2836672Y4074871D01*
X-2841040Y4076039D01*
X-2845409Y4076700D01*
G37*
G36*
X-3250184Y4076954D02*
G01*
X-3256584Y4076801D01*
X-3262629Y4076344D01*
X-3268370Y4075582D01*
X-3273755Y4074464D01*
X-3278784Y4073042D01*
X-3283508Y4071264D01*
X-3287877Y4069130D01*
X-3291890Y4066641D01*
X-3295599Y4063796D01*
X-3299002Y4060596D01*
X-3302050Y4056938D01*
X-3304794Y4052925D01*
X-3307181Y4048506D01*
X-3309264Y4043629D01*
X-3310991Y4038396D01*
X-3312414Y4032656D01*
X-3313531Y4026509D01*
X-3314344Y4019905D01*
X-3314801Y4012844D01*
X-3314954Y3983228D01*
X-3280664Y3983228D01*
X-3259277Y3976674D01*
X-3242157Y3970629D01*
X-3233674Y3967073D01*
X-3226308Y3963415D01*
X-3220008Y3959707D01*
X-3214776Y3955897D01*
X-3210407Y3952087D01*
X-3206953Y3948226D01*
X-3204210Y3944315D01*
X-3202178Y3940403D01*
X-3200704Y3936542D01*
X-3199790Y3932631D01*
X-3199282Y3928770D01*
X-3199130Y3924960D01*
X-3199790Y3917086D01*
X-3201720Y3910380D01*
X-3204718Y3904792D01*
X-3208782Y3900322D01*
X-3213760Y3896868D01*
X-3219551Y3894429D01*
X-3226003Y3893007D01*
X-3233013Y3892550D01*
X-3238398Y3892854D01*
X-3243478Y3893769D01*
X-3248507Y3895445D01*
X-3253689Y3897884D01*
X-3259277Y3901186D01*
X-3265525Y3905402D01*
X-3280664Y3916934D01*
X-3280664Y3983228D01*
X-3314954Y3983228D01*
X-3314954Y3914648D01*
X-3315208Y3907790D01*
X-3316020Y3902100D01*
X-3317240Y3897528D01*
X-3319018Y3893870D01*
X-3321202Y3891178D01*
X-3323793Y3889349D01*
X-3326790Y3888333D01*
X-3330194Y3887978D01*
X-3334969Y3888689D01*
X-3339134Y3890670D01*
X-3343046Y3893921D01*
X-3346958Y3898239D01*
X-3354578Y3890264D01*
X-3350920Y3884879D01*
X-3347008Y3880358D01*
X-3342894Y3876649D01*
X-3338525Y3873754D01*
X-3333953Y3871569D01*
X-3329127Y3870045D01*
X-3324047Y3869182D01*
X-3318764Y3868928D01*
X-3311398Y3869486D01*
X-3304743Y3871214D01*
X-3298799Y3873957D01*
X-3293668Y3877716D01*
X-3289300Y3882440D01*
X-3285794Y3888079D01*
X-3283153Y3894480D01*
X-3281426Y3901694D01*
X-3270605Y3891381D01*
X-3265576Y3886962D01*
X-3260648Y3882999D01*
X-3255822Y3879545D01*
X-3251047Y3876497D01*
X-3246221Y3873957D01*
X-3241243Y3871874D01*
X-3236112Y3870248D01*
X-3230727Y3869080D01*
X-3225038Y3868420D01*
X-3218942Y3868165D01*
X-3213303Y3868369D01*
X-3207816Y3868978D01*
X-3202533Y3869994D01*
X-3197453Y3871417D01*
X-3192627Y3873246D01*
X-3188055Y3875481D01*
X-3183839Y3878122D01*
X-3179876Y3881120D01*
X-3176320Y3884523D01*
X-3173120Y3888333D01*
X-3170377Y3892499D01*
X-3168040Y3897122D01*
X-3166160Y3902049D01*
X-3164840Y3907383D01*
X-3163976Y3913124D01*
X-3163671Y3919220D01*
X-3163874Y3923944D01*
X-3164433Y3928465D01*
X-3165398Y3932885D01*
X-3166821Y3937152D01*
X-3168700Y3941267D01*
X-3171139Y3945331D01*
X-3174136Y3949293D01*
X-3177743Y3953103D01*
X-3181959Y3956913D01*
X-3186887Y3960622D01*
X-3192526Y3964330D01*
X-3198876Y3967987D01*
X-3206038Y3971594D01*
X-3214065Y3975201D01*
X-3222904Y3978859D01*
X-3237839Y3984345D01*
X-3249269Y3988003D01*
X-3261614Y3991457D01*
X-3280664Y3996182D01*
X-3280664Y4009136D01*
X-3280410Y4018787D01*
X-3279648Y4027271D01*
X-3278378Y4034586D01*
X-3276549Y4040835D01*
X-3274161Y4046118D01*
X-3271215Y4050487D01*
X-3267710Y4053941D01*
X-3263544Y4056684D01*
X-3258820Y4058665D01*
X-3253435Y4059986D01*
X-3247390Y4060698D01*
X-3240684Y4060951D01*
X-3235147Y4060748D01*
X-3229406Y4060088D01*
X-3223412Y4059021D01*
X-3217062Y4057497D01*
X-3209036Y4028948D01*
X-3205835Y4020464D01*
X-3201263Y4014368D01*
X-3195370Y4010710D01*
X-3188055Y4009542D01*
X-3180486Y4010558D01*
X-3174898Y4013657D01*
X-3171190Y4018686D01*
X-3169412Y4025544D01*
X-3171037Y4031386D01*
X-3173171Y4036923D01*
X-3175863Y4042156D01*
X-3179013Y4047032D01*
X-3182670Y4051604D01*
X-3186785Y4055872D01*
X-3191357Y4059732D01*
X-3196386Y4063237D01*
X-3201771Y4066387D01*
X-3207613Y4069130D01*
X-3213811Y4071467D01*
X-3220415Y4073398D01*
X-3227374Y4074972D01*
X-3234639Y4076039D01*
X-3242259Y4076750D01*
G37*
G36*
X-2959100Y4076547D02*
G01*
X-2964789Y4072737D01*
X-2964078Y4017162D01*
X-2964230Y3932986D01*
X-2964789Y3891026D01*
X-2993390Y3886454D01*
X-2993390Y3873500D01*
X-2897378Y3873500D01*
X-2897378Y3886454D01*
X-2929382Y3891026D01*
X-2930042Y3939082D01*
X-2930144Y3991508D01*
X-2929686Y4019092D01*
X-2929026Y4038447D01*
X-2895092Y4041495D01*
X-2895092Y4054094D01*
G37*
G36*
X-1944471Y4071213D02*
G01*
X-1921256Y4054500D01*
X-1847799Y3860596D01*
X-1841042Y3844442D01*
X-1834286Y3830065D01*
X-1827530Y3817365D01*
X-1824177Y3811574D01*
X-1817370Y3801313D01*
X-1813966Y3796741D01*
X-1810512Y3792524D01*
X-1803603Y3785260D01*
X-1800098Y3782161D01*
X-1796592Y3779469D01*
X-1793036Y3777081D01*
X-1789480Y3774998D01*
X-1785874Y3773271D01*
X-1782267Y3771900D01*
X-1778558Y3770833D01*
X-1774850Y3770071D01*
X-1771142Y3769614D01*
X-1767332Y3769512D01*
X-1760016Y3769969D01*
X-1753158Y3771392D01*
X-1746808Y3773678D01*
X-1741220Y3776776D01*
X-1736598Y3780586D01*
X-1733042Y3785057D01*
X-1730806Y3790137D01*
X-1729993Y3795776D01*
X-1733550Y3803446D01*
X-1739747Y3808780D01*
X-1747723Y3811879D01*
X-1756664Y3812895D01*
X-1764842Y3811981D01*
X-1772208Y3809136D01*
X-1779371Y3804412D01*
X-1787143Y3797655D01*
X-1790192Y3794607D01*
X-1794713Y3798417D01*
X-1798980Y3802532D01*
X-1803044Y3806901D01*
X-1806854Y3811574D01*
X-1810410Y3816502D01*
X-1813814Y3821684D01*
X-1817014Y3827068D01*
X-1822856Y3838448D01*
X-1828139Y3850487D01*
X-1832457Y3861308D01*
X-1754784Y4055262D01*
X-1731162Y4058310D01*
X-1731162Y4071213D01*
X-1830171Y4071213D01*
X-1830171Y4058310D01*
X-1794002Y4054500D01*
X-1848866Y3905910D01*
X-1901443Y4054094D01*
X-1863699Y4058310D01*
X-1863699Y4071213D01*
G37*
G36*
X-3893820Y2772003D02*
G01*
X-3893820Y2561996D01*
X-3863797Y2561996D01*
X-3863797Y2772003D01*
G37*
G36*
X-3983786Y2681986D02*
G01*
X-3983786Y2652014D01*
X-3773779Y2652014D01*
X-3773779Y2681986D01*
G37*
D10*
X-2953004Y7010400D02*
G01*
X-2953004Y9010395D01*
X-4953000Y9010395D01*
X-4953000Y7010400D01*
X-2953004Y7010400D01*
D11*
X-2034801Y2205499D02*
G01*
X-2034801Y2204402D01*
X-2261702Y1977501D01*
X-4163799Y2205499D02*
G01*
X-4163799Y2205400D01*
X-3935798Y1977400D01*
X-4163799Y2205499D02*
G01*
X-4163799Y2338885D01*
X-2034801Y2205499D02*
G01*
X-2034801Y2338885D01*
X-2313802Y3407498D02*
G01*
X-2313802Y3407397D01*
X-2033803Y3127397D01*
X-3883799Y3407498D02*
G01*
X-3883799Y3406498D01*
X-4162798Y3127499D01*
X-4162798Y3127499D02*
G01*
X-4162798Y2995114D01*
X-2033803Y3127397D02*
G01*
X-2033803Y2995114D01*
X-3883799Y3407498D02*
G01*
X-2313802Y3407498D01*
X-5082631Y4107451D02*
G01*
X-5357345Y3261964D01*
X-5463052Y4231058D02*
G01*
X-5737766Y3385571D01*
X-5463052Y4231058D02*
G01*
X-5082631Y4107451D01*
X-5737766Y3385571D02*
G01*
X-5357345Y3261964D01*
D12*
X-1826260Y7246620D02*
G01*
X-1826260Y6954520D01*
X-5382260Y6103620D02*
G01*
X-5382260Y5811520D01*
D11*
G75*
G01*
X-2261702Y1977502D02*
G03*
X-3935730Y1977390I-836649J-5470594D01*
D12*
G75*
G01*
X-1828127Y6953026D02*
G02*
X-1826849Y7248802I-218370J148834D01*
G75*
G01*
X-5384127Y5810026D02*
G02*
X-5382849Y6105802I-218370J148834D01*
M02*
