G04 Layer: TopSilkscreenLayer*
G04 EasyEDA v6.5.57, 2026-08-20 09:28:20*
G04 d37e67de4a31421e9a911c6ddd497033,47083fb59e924f2e982a52276fdf08c8,10*
G04 Gerber Generator version 0.2*
G04 Scale: 100 percent, Rotated: No, Reflected: No *
G04 Dimensions in millimeters *
G04 leading zeros omitted , absolute positions ,4 integer and 5 decimal *
%FSLAX45Y45*%
%MOMM*%

%ADD10C,0.0138*%

%LPD*%
G36*
X2429408Y11709400D02*
G01*
X2052218Y11706758D01*
X1945081Y11685981D01*
X1805736Y11652656D01*
X1635607Y11596065D01*
X1583182Y11553139D01*
X1527149Y11553037D01*
X1452118Y11505031D01*
X1334262Y11438382D01*
X1077112Y11259566D01*
X916381Y11123980D01*
X645871Y10841888D01*
X541324Y10707420D01*
X156768Y10208412D01*
X46939Y10073436D01*
X-262382Y9747097D01*
X-433832Y9596577D01*
X-637387Y9458299D01*
X-755294Y9392310D01*
X-937463Y9311487D01*
X-1098194Y9256522D01*
X-1301750Y9210802D01*
X-1548231Y9187078D01*
X-1880412Y9165844D01*
X-2035403Y9131909D01*
X-2209444Y9071965D01*
X-2341168Y8984284D01*
X-2433167Y8891574D01*
X-2524810Y8895283D01*
X-2662631Y8942578D01*
X-2930550Y9002115D01*
X-3509162Y9001963D01*
X-3916375Y8941104D01*
X-4141419Y8896654D01*
X-4248556Y8871407D01*
X-4543399Y8784996D01*
X-4591456Y8765082D01*
X-4880762Y8647023D01*
X-5212943Y8475370D01*
X-5427268Y8342630D01*
X-5598718Y8223554D01*
X-5794908Y8072932D01*
X-5922314Y7965338D01*
X-6068060Y7831378D01*
X-6413093Y7831378D01*
X-6488125Y7805166D01*
X-6708241Y7734960D01*
X-6766712Y7703210D01*
X-6785914Y7703058D01*
X-7045350Y7566710D01*
X-7227468Y7443774D01*
X-7343800Y7351522D01*
X-7570419Y7116876D01*
X-7827568Y6819188D01*
X-8107578Y6535724D01*
X-8320481Y6356604D01*
X-8524087Y6201003D01*
X-8716975Y6064554D01*
X-8974124Y5902756D01*
X-9220606Y5774385D01*
X-9438132Y5683148D01*
X-9462008Y5683148D01*
X-9499193Y5663133D01*
X-9649206Y5617718D01*
X-10088575Y5506618D01*
X-10249306Y5459882D01*
X-10286492Y5437632D01*
X-10319258Y5437632D01*
X-10356443Y5417108D01*
X-10485018Y5365953D01*
X-10656468Y5267452D01*
X-10728401Y5208879D01*
X-10838637Y5094020D01*
X-10894771Y5019141D01*
X-10970158Y4862931D01*
X-10995406Y4773676D01*
X-11026190Y4628591D01*
X-11026190Y4424273D01*
X-10854740Y4424273D01*
X-10853978Y4628591D01*
X-10825175Y4751324D01*
X-10786719Y4851755D01*
X-10717530Y4963363D01*
X-10635030Y5053990D01*
X-10515955Y5146954D01*
X-10335006Y5234228D01*
X-10206431Y5279847D01*
X-10053828Y5326126D01*
X-9638487Y5436209D01*
X-9520631Y5468772D01*
X-9324695Y5536336D01*
X-9134856Y5620613D01*
X-8952687Y5719724D01*
X-8749131Y5842711D01*
X-8438337Y6061913D01*
X-8207400Y6249162D01*
X-8148574Y6302502D01*
X-7988300Y6446012D01*
X-7751572Y6693103D01*
X-7475220Y7027925D01*
X-7227468Y7285939D01*
X-7058101Y7404760D01*
X-6884568Y7508595D01*
X-6755993Y7571536D01*
X-6597700Y7637068D01*
X-6416090Y7691881D01*
X-6204153Y7691881D01*
X-6204153Y7671562D01*
X-6295237Y7555331D01*
X-6346647Y7479436D01*
X-6335115Y7467498D01*
X-6070193Y7686649D01*
X-5848908Y7853730D01*
X-5705906Y7959852D01*
X-5523738Y8089900D01*
X-5240121Y8272475D01*
X-4937150Y8439759D01*
X-4691176Y8553196D01*
X-4462881Y8641689D01*
X-4312869Y8687054D01*
X-4130700Y8739225D01*
X-3948531Y8775700D01*
X-3706672Y8818118D01*
X-3434181Y8856370D01*
X-2941269Y8858097D01*
X-2791256Y8828684D01*
X-2587650Y8783320D01*
X-2234031Y8682228D01*
X-2053742Y8639606D01*
X-2030730Y8663584D01*
X-2063343Y8724188D01*
X-2122678Y8753856D01*
X-2276906Y8810853D01*
X-2303678Y8832900D01*
X-2303678Y8849715D01*
X-2154936Y8931148D01*
X-2062581Y8965641D01*
X-1901850Y9010142D01*
X-1312468Y9030106D01*
X-1130300Y9063177D01*
X-919937Y9119412D01*
X-733856Y9190278D01*
X-594563Y9261551D01*
X-465937Y9335312D01*
X-326644Y9437014D01*
X-133756Y9597796D01*
X100380Y9828987D01*
X316280Y10085781D01*
X530606Y10364622D01*
X541832Y10375798D01*
X755599Y10654182D01*
X1066393Y10981588D01*
X1325575Y11181283D01*
X1505712Y11294567D01*
X1698599Y11387886D01*
X1880768Y11451488D01*
X2041499Y11485219D01*
X2127199Y11492534D01*
X2416556Y11485270D01*
X2545130Y11462308D01*
X2716580Y11375745D01*
X2840329Y11273383D01*
X2977083Y11093297D01*
X3073146Y10889132D01*
X3117900Y10744047D01*
X3152597Y10587837D01*
X3182315Y10386974D01*
X3182315Y10107980D01*
X3151276Y9884765D01*
X3097784Y9667595D01*
X3000349Y9408058D01*
X2902000Y9209684D01*
X2756306Y8980830D01*
X2584653Y8767521D01*
X2405837Y8592159D01*
X2180793Y8405571D01*
X1930806Y8227568D01*
X1920443Y8227568D01*
X1776780Y8136686D01*
X1441399Y7961680D01*
X1181049Y7850276D01*
X777036Y7714589D01*
X509168Y7638694D01*
X251967Y7580731D01*
X59131Y7547000D01*
X-281889Y7513370D01*
X-516737Y7513370D01*
X-742696Y7454392D01*
X-851712Y7576515D01*
X-1012444Y7754569D01*
X-1219809Y7932978D01*
X-1329994Y7995412D01*
X-1341221Y7983728D01*
X-1327708Y7939278D01*
X-1153312Y7764424D01*
X-997356Y7603540D01*
X-864819Y7429855D01*
X-720699Y7206183D01*
X-664464Y7090613D01*
X-602234Y6927443D01*
X-566775Y6771233D01*
X-543712Y6670802D01*
X-533501Y6402984D01*
X-578307Y6182512D01*
X-657047Y5990082D01*
X-769823Y5811520D01*
X-916025Y5664098D01*
X-1148943Y5480151D01*
X-1216050Y5491022D01*
X-1351838Y5516575D01*
X-1481531Y5481980D01*
X-1601825Y5414670D01*
X-1678584Y5342737D01*
X-1817420Y5153101D01*
X-1923288Y5115864D01*
X-2041143Y5079034D01*
X-2324862Y4956708D01*
X-2555494Y4866589D01*
X-2887675Y4748936D01*
X-2930550Y4736388D01*
X-3155543Y4667351D01*
X-3412744Y4601362D01*
X-3664204Y4544872D01*
X-3799332Y4544872D01*
X-3943248Y4677918D01*
X-4025849Y4703673D01*
X-4261459Y4695291D01*
X-4423105Y4608677D01*
X-4554169Y4487113D01*
X-4651197Y4355795D01*
X-4730750Y4333849D01*
X-5030774Y4286605D01*
X-5148681Y4267250D01*
X-5491581Y4218736D01*
X-5770168Y4232198D01*
X-5952337Y4264710D01*
X-6048806Y4285996D01*
X-6166662Y4310989D01*
X-6327394Y4357522D01*
X-6473444Y4433417D01*
X-6560108Y4505807D01*
X-6661556Y4639716D01*
X-6736689Y4774641D01*
X-6801866Y4952187D01*
X-6845096Y5141925D01*
X-6873341Y5342788D01*
X-6872122Y5688736D01*
X-6836257Y5941669D01*
X-6802374Y6101638D01*
X-6762496Y6246723D01*
X-6718503Y6419291D01*
X-6718503Y6475476D01*
X-6736537Y6475476D01*
X-6794398Y6364732D01*
X-6859727Y6179769D01*
X-6880504Y6112814D01*
X-6922262Y5956554D01*
X-6964934Y5737504D01*
X-6989267Y5522518D01*
X-6976618Y5231180D01*
X-6923633Y4929886D01*
X-6953250Y4882032D01*
X-7077456Y4795977D01*
X-7419898Y4349597D01*
X-7870444Y3879545D01*
X-8084718Y3701237D01*
X-8299043Y3542639D01*
X-8475827Y3428695D01*
X-8759850Y3277412D01*
X-8899144Y3213963D01*
X-9081312Y3147060D01*
X-9274149Y3093364D01*
X-9649206Y3071368D01*
X-9799218Y3095091D01*
X-9926218Y3129229D01*
X-10118090Y3209239D01*
X-10313568Y3342894D01*
X-10492841Y3534918D01*
X-10650423Y3781196D01*
X-10745876Y3993946D01*
X-10813338Y4210050D01*
X-10854740Y4424273D01*
X-11026190Y4424273D01*
X-11026190Y4401515D01*
X-11003229Y4282643D01*
X-10969142Y4115206D01*
X-10909909Y3931818D01*
X-10771936Y3644696D01*
X-10636859Y3434486D01*
X-10623854Y3423361D01*
X-10520273Y3295396D01*
X-10345724Y3142488D01*
X-10249306Y3075330D01*
X-10123982Y3004413D01*
X-9903307Y2926689D01*
X-9734956Y2895600D01*
X-9551771Y2868015D01*
X-9413494Y2880868D01*
X-9252762Y2902407D01*
X-9145574Y2926435D01*
X-9070594Y2946704D01*
X-8920581Y2996184D01*
X-8706256Y3084372D01*
X-8367369Y3261614D01*
X-8127593Y3420110D01*
X-7934706Y3566769D01*
X-7773974Y3700983D01*
X-7677556Y3788968D01*
X-7391400Y4081729D01*
X-7172553Y4349597D01*
X-7043623Y4528159D01*
X-6933590Y4695545D01*
X-6880859Y4762500D01*
X-6859371Y4740198D01*
X-6780682Y4585055D01*
X-6696760Y4456328D01*
X-6589928Y4345076D01*
X-6496862Y4278426D01*
X-6353657Y4210100D01*
X-6332728Y4210100D01*
X-6332728Y4188307D01*
X-6380937Y4157979D01*
X-6530390Y4059428D01*
X-6734556Y3843223D01*
X-6864400Y3624224D01*
X-6931761Y3456787D01*
X-6973468Y3300577D01*
X-6988911Y3233623D01*
X-7013600Y2982976D01*
X-7000121Y2843022D01*
X-6872071Y2843022D01*
X-6871868Y3144367D01*
X-6814312Y3376625D01*
X-6749745Y3546094D01*
X-6650837Y3724656D01*
X-6539484Y3869740D01*
X-6444996Y3960114D01*
X-6307632Y4057294D01*
X-6134506Y4131564D01*
X-6005931Y4130649D01*
X-5898743Y4109923D01*
X-5620156Y4072585D01*
X-5341569Y4099763D01*
X-5153355Y4123842D01*
X-5140096Y4110024D01*
X-5227320Y3903218D01*
X-5295849Y3724656D01*
X-5422849Y3346043D01*
X-5487670Y3093161D01*
X-5508650Y2976930D01*
X-5518446Y2731414D01*
X-5400497Y2731414D01*
X-5378704Y2965805D01*
X-5338419Y3155492D01*
X-5305145Y3278276D01*
X-5199329Y3613048D01*
X-5088280Y3925519D01*
X-5059324Y3992473D01*
X-5016246Y4111193D01*
X-4984191Y4162094D01*
X-4880762Y4192168D01*
X-4721199Y4254093D01*
X-4711344Y4243832D01*
X-4808220Y4025950D01*
X-4835093Y3920845D01*
X-4821428Y3864152D01*
X-4799380Y3864152D01*
X-4682998Y4121150D01*
X-4572000Y4293768D01*
X-4409287Y4461459D01*
X-4226356Y4557725D01*
X-4096308Y4570018D01*
X-4016349Y4542536D01*
X-3939590Y4472330D01*
X-3896004Y4371898D01*
X-3886860Y4059428D01*
X-3912717Y3802786D01*
X-3954373Y3557270D01*
X-3977182Y3445662D01*
X-3987495Y3406597D01*
X-3965600Y3406597D01*
X-3934815Y3479139D01*
X-3898239Y3579571D01*
X-3791407Y3914343D01*
X-3760978Y4078122D01*
X-3760978Y4419396D01*
X-3734206Y4441748D01*
X-3562756Y4457496D01*
X-3284169Y4511141D01*
X-3037687Y4576572D01*
X-2809443Y4644644D01*
X-2512720Y4746294D01*
X-2330450Y4814417D01*
X-2008987Y4947462D01*
X-1891131Y5010251D01*
X-1853641Y5013604D01*
X-1853641Y4860899D01*
X-1840326Y4806696D01*
X-1730400Y4806696D01*
X-1729130Y5019141D01*
X-1653133Y5188254D01*
X-1526794Y5321554D01*
X-1441094Y5363616D01*
X-1333906Y5391353D01*
X-1269644Y5380024D01*
X-1193342Y5359806D01*
X-1093520Y5290921D01*
X-1011326Y5186578D01*
X-944930Y5074970D01*
X-901039Y4972710D01*
X-854862Y4851755D01*
X-814222Y4720539D01*
X-814222Y4626356D01*
X-877214Y4535779D01*
X-1014018Y4465624D01*
X-1190548Y4433570D01*
X-1344625Y4456023D01*
X-1419656Y4479442D01*
X-1534210Y4539284D01*
X-1659940Y4657547D01*
X-1730400Y4806696D01*
X-1840326Y4806696D01*
X-1810766Y4686300D01*
X-1753717Y4583938D01*
X-1612087Y4438192D01*
X-1430375Y4346092D01*
X-1316888Y4317238D01*
X-1298244Y4293768D01*
X-1213358Y4025950D01*
X-1127760Y3691178D01*
X-1104798Y3579571D01*
X-1071880Y3434486D01*
X-1049528Y3278276D01*
X-1015746Y3010408D01*
X-1026820Y2787243D01*
X-1090218Y2530551D01*
X-1145590Y2389327D01*
X-1315770Y2084171D01*
X-1341932Y2005177D01*
X-1296416Y1817674D01*
X-1297178Y1704746D01*
X-1325473Y1581454D01*
X-1359966Y1512011D01*
X-1458976Y1421231D01*
X-1556308Y1406042D01*
X-1697024Y1419758D01*
X-1856587Y1498650D01*
X-1960778Y1578305D01*
X-1960778Y1607870D01*
X-1773275Y1713280D01*
X-1681734Y1778660D01*
X-1692859Y1797405D01*
X-1794713Y1765350D01*
X-2030425Y1707845D01*
X-2287625Y1645818D01*
X-2426919Y1621586D01*
X-2630525Y1587550D01*
X-2898394Y1554530D01*
X-3622954Y1554073D01*
X-3830675Y1578000D01*
X-4106722Y1622755D01*
X-4254601Y1674875D01*
X-4430725Y1780743D01*
X-4531004Y1838350D01*
X-4545990Y1822754D01*
X-4477766Y1712010D01*
X-4387850Y1625854D01*
X-4284878Y1552194D01*
X-4293006Y1526184D01*
X-4459478Y1410004D01*
X-4580737Y1372920D01*
X-4741468Y1371701D01*
X-4859375Y1400454D01*
X-4992166Y1465427D01*
X-5108600Y1576222D01*
X-5152847Y1693570D01*
X-5176520Y1861007D01*
X-5129682Y2076450D01*
X-5179212Y2151126D01*
X-5289448Y2273909D01*
X-5345328Y2374341D01*
X-5388000Y2519426D01*
X-5400497Y2731414D01*
X-5518446Y2731414D01*
X-5524906Y2569464D01*
X-5546852Y2546654D01*
X-5716574Y2510485D01*
X-5877356Y2538120D01*
X-6009233Y2603246D01*
X-6115608Y2724454D01*
X-6176111Y2876499D01*
X-6177381Y3043885D01*
X-6123787Y3155492D01*
X-6021882Y3260191D01*
X-5885230Y3330244D01*
X-5799328Y3342233D01*
X-5695188Y3307079D01*
X-5630875Y3300577D01*
X-5624017Y3350920D01*
X-5686399Y3415944D01*
X-5780887Y3442665D01*
X-5926175Y3430168D01*
X-6080912Y3352190D01*
X-6202426Y3222447D01*
X-6271920Y3078683D01*
X-6281775Y2865323D01*
X-6247587Y2726436D01*
X-6179870Y2586380D01*
X-6037376Y2440330D01*
X-5931966Y2378964D01*
X-5804154Y2335276D01*
X-5613755Y2335276D01*
X-5525058Y2379929D01*
X-5497220Y2379929D01*
X-5424322Y2229256D01*
X-5324449Y2090826D01*
X-5261203Y2035403D01*
X-5261203Y2015083D01*
X-5491581Y1935530D01*
X-5588000Y1912416D01*
X-5766765Y1885848D01*
X-5935116Y1900478D01*
X-6145225Y1955444D01*
X-6284518Y2016252D01*
X-6423812Y2100224D01*
X-6545935Y2200757D01*
X-6688328Y2374341D01*
X-6756806Y2497074D01*
X-6822490Y2653334D01*
X-6872071Y2843022D01*
X-7000121Y2843022D01*
X-6995820Y2798368D01*
X-6942023Y2575204D01*
X-6847281Y2366162D01*
X-6758990Y2229256D01*
X-6563106Y2020824D01*
X-6404152Y1907997D01*
X-6230924Y1824431D01*
X-6102350Y1779117D01*
X-5941618Y1741982D01*
X-5704179Y1729536D01*
X-5523738Y1756714D01*
X-5330850Y1812798D01*
X-5273954Y1824126D01*
X-5259527Y1648968D01*
X-5236870Y1570837D01*
X-5185003Y1477568D01*
X-5040477Y1336497D01*
X-4912918Y1267002D01*
X-4762906Y1214120D01*
X-4505756Y1214932D01*
X-4366412Y1268171D01*
X-4280712Y1322324D01*
X-4198061Y1403451D01*
X-4144924Y1489760D01*
X-4034231Y1475232D01*
X-3702050Y1416050D01*
X-2823362Y1414576D01*
X-2598369Y1443786D01*
X-2287625Y1499463D01*
X-2073300Y1552549D01*
X-1934006Y1402435D01*
X-1837537Y1334922D01*
X-1734210Y1285392D01*
X-1602232Y1250188D01*
X-1449527Y1260398D01*
X-1351584Y1309776D01*
X-1254658Y1386840D01*
X-1178610Y1548536D01*
X-1143762Y1726793D01*
X-1156208Y1865375D01*
X-1210665Y2034438D01*
X-1210665Y2078532D01*
X-1122680Y2173427D01*
X-1037844Y2307386D01*
X-976731Y2441295D01*
X-922782Y2619857D01*
X-895248Y2753766D01*
X-896619Y3144367D01*
X-943356Y3434486D01*
X-976223Y3579571D01*
X-999032Y3691178D01*
X-1070711Y3970172D01*
X-1169263Y4260291D01*
X-1181049Y4299356D01*
X-1151737Y4300677D01*
X-1049782Y4318152D01*
X-1031138Y4293768D01*
X-1015542Y4137558D01*
X-974648Y3970934D01*
X-885647Y3813911D01*
X-723138Y3638753D01*
X-641756Y3571290D01*
X-628446Y3585159D01*
X-692353Y3668826D01*
X-798118Y3814572D01*
X-842314Y3880865D01*
X-908050Y4003649D01*
X-951839Y4148734D01*
X-961034Y4322419D01*
X-944118Y4333290D01*
X-680262Y4057853D01*
X-487375Y3922877D01*
X-380238Y3866743D01*
X-69494Y3739896D01*
X-32258Y3719068D01*
X1422Y3719068D01*
X-11785Y3741369D01*
X-39928Y3741369D01*
X-230225Y3861206D01*
X-369519Y3953205D01*
X-455218Y4001262D01*
X-530250Y4058107D01*
X-648106Y4148683D01*
X-753516Y4249166D01*
X-867359Y4371898D01*
X-867765Y4395216D01*
X-760526Y4480407D01*
X-615950Y4351578D01*
X-508812Y4280357D01*
X-390956Y4235754D01*
X-251663Y4209084D01*
X-144475Y4185869D01*
X-48056Y4194098D01*
X-80213Y4207764D01*
X-208788Y4245102D01*
X-433832Y4322927D01*
X-596950Y4420666D01*
X-696823Y4515307D01*
X-727405Y4628591D01*
X-741426Y4740198D01*
X-790041Y4954371D01*
X-871728Y5153101D01*
X-962507Y5298135D01*
X-1060653Y5406796D01*
X-1060196Y5420918D01*
X-873150Y5532526D01*
X-648106Y5767019D01*
X-546100Y5948832D01*
X-484124Y6112814D01*
X-423824Y6313678D01*
X-426770Y6402984D01*
X-446227Y6771233D01*
X-495249Y6949795D01*
X-571804Y7150658D01*
X-632053Y7265720D01*
X-632053Y7290155D01*
X-433832Y7291527D01*
X-273050Y7312355D01*
X176987Y7344156D01*
X539242Y7423861D01*
X605586Y7444892D01*
X696671Y7468717D01*
X777036Y7489342D01*
X969924Y7548524D01*
X1184249Y7622184D01*
X1344980Y7682585D01*
X1409293Y7711389D01*
X1548587Y7772958D01*
X1870049Y7941513D01*
X2030780Y8041233D01*
X2178659Y8140953D01*
X2352243Y8271408D01*
X2433320Y8342122D01*
X2513380Y8402523D01*
X2794762Y8694166D01*
X2882188Y8817406D01*
X2904744Y8831935D01*
X3050692Y9058960D01*
X3156610Y9259824D01*
X3225546Y9409074D01*
X3225546Y9433102D01*
X3245307Y9471863D01*
X3289198Y9594646D01*
X3333038Y9762032D01*
X3373120Y10007549D01*
X3367227Y10554360D01*
X3333242Y10710570D01*
X3300272Y10841126D01*
X3216300Y11073333D01*
X3113532Y11253216D01*
X3000349Y11402466D01*
X2845155Y11541455D01*
X2620111Y11661394D01*
X2491536Y11689486D01*
G37*
G36*
X-2159000Y7480350D02*
G01*
X-2233879Y7445197D01*
X-2284526Y7396175D01*
X-2346655Y7302753D01*
X-2350062Y7288936D01*
X-2200910Y7288936D01*
X-2161032Y7334808D01*
X-2078431Y7334808D01*
X-1983486Y7288326D01*
X-1885746Y7179513D01*
X-1885746Y7149541D01*
X-1943607Y7056678D01*
X-2004060Y7030618D01*
X-2086406Y7042099D01*
X-2145131Y7082180D01*
X-2198217Y7169759D01*
X-2200910Y7288936D01*
X-2350062Y7288936D01*
X-2381402Y7161834D01*
X-2370277Y6927443D01*
X-2321966Y6793534D01*
X-2261260Y6700926D01*
X-2176881Y6631330D01*
X-2051862Y6573164D01*
X-1912569Y6572910D01*
X-1811375Y6622745D01*
X-1733296Y6712762D01*
X-1680870Y6832041D01*
X-1681225Y7006081D01*
X-1735226Y7172401D01*
X-1836623Y7326934D01*
X-1955444Y7424166D01*
X-2050440Y7470749D01*
G37*
G36*
X-948131Y6617716D02*
G01*
X-1280363Y6588607D01*
X-1408938Y6553149D01*
X-1526794Y6504635D01*
X-1644650Y6438341D01*
X-1766163Y6341668D01*
X-1862734Y6226708D01*
X-1931111Y6086449D01*
X-1941279Y5992368D01*
X-1877517Y5992368D01*
X-1853133Y6110732D01*
X-1778863Y6238087D01*
X-1687525Y6325616D01*
X-1584096Y6399631D01*
X-1408938Y6483959D01*
X-1226769Y6531762D01*
X-1098194Y6550914D01*
X-943864Y6553606D01*
X-830275Y6528511D01*
X-733856Y6477558D01*
X-674116Y6412026D01*
X-661466Y6330899D01*
X-719328Y6207658D01*
X-828243Y6083554D01*
X-960932Y5984951D01*
X-1109268Y5908649D01*
X-1323187Y5840780D01*
X-1451813Y5812891D01*
X-1666087Y5813094D01*
X-1789582Y5852210D01*
X-1853234Y5907989D01*
X-1877517Y5992368D01*
X-1941279Y5992368D01*
X-1941982Y5985865D01*
X-1927402Y5905042D01*
X-1849729Y5815482D01*
X-1773275Y5775452D01*
X-1655368Y5746496D01*
X-1408938Y5747207D01*
X-1237488Y5784951D01*
X-1076756Y5840780D01*
X-916025Y5925261D01*
X-833069Y5984189D01*
X-723036Y6090513D01*
X-634136Y6202070D01*
X-599897Y6308902D01*
X-599998Y6380632D01*
X-623468Y6469938D01*
X-723849Y6571386D01*
X-840994Y6607708D01*
G37*
G36*
X-5583377Y6296964D02*
G01*
X-5684469Y6295390D01*
X-5783072Y6263741D01*
X-5879541Y6156299D01*
X-5924377Y6058154D01*
X-5756148Y6058154D01*
X-5723636Y6139281D01*
X-5641594Y6184341D01*
X-5573318Y6185357D01*
X-5521452Y6164834D01*
X-5453989Y6069228D01*
X-5409641Y5945784D01*
X-5442000Y5875070D01*
X-5522061Y5811520D01*
X-5621832Y5811520D01*
X-5703062Y5876036D01*
X-5742432Y5968695D01*
X-5756148Y6058154D01*
X-5924377Y6058154D01*
X-5945276Y6012383D01*
X-5971387Y5833160D01*
X-5937504Y5660085D01*
X-5883198Y5536539D01*
X-5748731Y5397601D01*
X-5633770Y5359552D01*
X-5566562Y5359654D01*
X-5483402Y5383733D01*
X-5378856Y5485536D01*
X-5312562Y5625795D01*
X-5294884Y5789726D01*
X-5312613Y6001207D01*
X-5358536Y6121654D01*
X-5423509Y6215837D01*
X-5482488Y6261252D01*
G37*
G36*
X-3296665Y6151880D02*
G01*
X-3310940Y6136995D01*
X-3310940Y6119012D01*
X-3206292Y6072124D01*
X-3148482Y6009284D01*
X-3139389Y5923076D01*
X-3176981Y5845759D01*
X-3249879Y5794705D01*
X-3337712Y5769965D01*
X-3466337Y5781751D01*
X-3627069Y5836361D01*
X-3664305Y5816396D01*
X-3770274Y5652871D01*
X-3870909Y5560618D01*
X-3986580Y5522671D01*
X-4066387Y5551932D01*
X-4113987Y5597144D01*
X-4137863Y5672480D01*
X-4122724Y5766866D01*
X-4079494Y5863082D01*
X-4101642Y5886145D01*
X-4140860Y5878271D01*
X-4212996Y5733389D01*
X-4205427Y5574842D01*
X-4141419Y5478576D01*
X-4077512Y5438089D01*
X-3964381Y5411724D01*
X-3831793Y5450128D01*
X-3730447Y5527649D01*
X-3663137Y5632958D01*
X-3650792Y5696254D01*
X-3625087Y5706516D01*
X-3455619Y5645962D01*
X-3284169Y5644184D01*
X-3194405Y5672480D01*
X-3087065Y5760872D01*
X-3030880Y5860694D01*
X-3019094Y5979769D01*
X-3066440Y6094476D01*
X-3145993Y6151880D01*
G37*
G36*
X-5465826Y5214467D02*
G01*
X-5705906Y5213553D01*
X-5987948Y5115915D01*
X-6140196Y5036312D01*
X-6295237Y4927396D01*
X-6434531Y4773117D01*
X-6474663Y4655058D01*
X-6472735Y4637125D01*
X-6432245Y4637125D01*
X-6371590Y4757826D01*
X-6249568Y4886045D01*
X-6097625Y4992217D01*
X-5939942Y5067096D01*
X-5770168Y5125212D01*
X-5609437Y5168595D01*
X-5566562Y5169814D01*
X-5405831Y5137099D01*
X-5340959Y5116982D01*
X-5250891Y5069179D01*
X-5218328Y5003546D01*
X-5218328Y4958638D01*
X-5260746Y4840630D01*
X-5352288Y4740198D01*
X-5417362Y4682845D01*
X-5545124Y4592574D01*
X-5695188Y4514545D01*
X-5828233Y4467098D01*
X-5984494Y4441647D01*
X-6220206Y4454296D01*
X-6337503Y4491431D01*
X-6417056Y4574286D01*
X-6432245Y4637125D01*
X-6472735Y4637125D01*
X-6463944Y4555794D01*
X-6415582Y4482338D01*
X-6346748Y4435348D01*
X-6250787Y4401413D01*
X-6070193Y4375251D01*
X-5872327Y4389983D01*
X-5716574Y4434890D01*
X-5541772Y4520133D01*
X-5384800Y4625898D01*
X-5237429Y4773676D01*
X-5179060Y4862931D01*
X-5150967Y4970018D01*
X-5177891Y5063794D01*
X-5219344Y5124551D01*
X-5352288Y5189778D01*
G37*
M02*
