G04 Layer: BoardOutlineLayer*
G04 EasyEDA v6.5.57, 2026-08-20 09:28:20*
G04 d37e67de4a31421e9a911c6ddd497033,47083fb59e924f2e982a52276fdf08c8,10*
G04 Gerber Generator version 0.2*
G04 Scale: 100 percent, Rotated: No, Reflected: No *
G04 Dimensions in millimeters *
G04 leading zeros omitted , absolute positions ,4 integer and 5 decimal *
%FSLAX45Y45*%
%MOMM*%

%ADD10C,0.3099*%
%ADD11C,0.0254*%
%ADD12C,0.0158*%
D10*
X-4628134Y1185926D02*
G01*
X-4441189Y1198626D01*
X-4285995Y1274063D01*
X-4120134Y1427226D01*
X-4094734Y1452626D01*
X-3904234Y1414526D01*
X-3675634Y1376426D01*
X-3345434Y1389126D01*
X-2913634Y1376426D01*
X-2705100Y1397000D01*
X-2489200Y1435100D01*
X-2088134Y1516126D01*
X-2037334Y1452626D01*
X-1917700Y1346200D01*
X-1803400Y1282700D01*
X-1651000Y1219200D01*
X-1498600Y1219200D01*
X-1346200Y1257300D01*
X-1231900Y1358900D01*
X-1181100Y1473200D01*
X-1143000Y1549400D01*
X-1130300Y1651000D01*
X-1117600Y1790700D01*
X-1155700Y1968500D01*
X-1181100Y2044700D01*
X-1041400Y2235200D01*
X-914400Y2476500D01*
X-850900Y2692400D01*
X-850900Y2997200D01*
X-850900Y3200400D01*
X-889000Y3429000D01*
X-965200Y3683000D01*
X-1016000Y3898900D01*
X-1079500Y4051300D01*
X-1130300Y4229100D01*
X-1143000Y4279900D01*
X-1079500Y4279900D01*
X-1117600Y4279900D01*
X-1079500Y4279900D01*
X-1041400Y4292600D01*
X-1054100Y4292600D01*
X-939800Y4318000D01*
X-889000Y4343400D01*
X-863600Y4368800D01*
X-800100Y4419600D01*
X-762000Y4457700D01*
X-711200Y4495800D01*
X-685800Y4546600D01*
X-698500Y4660900D01*
X-723900Y4800600D01*
X-774700Y4978400D01*
X-838200Y5156200D01*
X-889000Y5232400D01*
X-927100Y5295900D01*
X-965200Y5346700D01*
X-1003300Y5384800D01*
X-1016000Y5397500D01*
X-1016000Y5410200D01*
X-939800Y5461000D01*
X-889000Y5486400D01*
X-838200Y5524500D01*
X-736600Y5626100D01*
X-584200Y5778500D01*
X-520700Y5918200D01*
X-457200Y6057900D01*
X-406400Y6223000D01*
X-381000Y6350000D01*
X-393700Y6438900D01*
X-406400Y6667500D01*
X-431800Y6870700D01*
X-495300Y7035800D01*
X-520700Y7086600D01*
X-558800Y7175500D01*
X-609600Y7264400D01*
X-355600Y7251700D01*
X-203200Y7264400D01*
X304800Y7315200D01*
X647700Y7416800D01*
X1143000Y7556500D01*
X1689100Y7785100D01*
X2108200Y8026400D01*
X2540000Y8369300D01*
X2908300Y8775700D01*
X3111500Y9080500D01*
X3276600Y9448800D01*
X3365500Y9715500D01*
X3416300Y9944100D01*
X3416300Y10096500D01*
X3416300Y10350500D01*
X3378200Y10782300D01*
X3340100Y10871200D01*
X3352800Y10858500D01*
X3200400Y11163300D01*
X3289300Y10998200D01*
X3403600Y10668000D01*
X3390900Y10680700D01*
X3403600Y10693400D01*
X3238500Y11087354D01*
X3289300Y10960100D01*
X3238500Y11112500D01*
X3126740Y11289284D01*
X3022600Y11417300D01*
X2908300Y11518900D01*
X2806700Y11607800D01*
X2705100Y11658600D01*
X2590800Y11709400D01*
X2425700Y11747500D01*
X2273300Y11747500D01*
X2019300Y11734800D01*
X1763521Y11672824D01*
X1612900Y11620500D01*
X1549400Y11595100D01*
X1524000Y11582400D01*
X1447800Y11544300D01*
X1333500Y11468100D01*
X1104900Y11328400D01*
X889000Y11137900D01*
X660400Y10922000D01*
X444500Y10655300D01*
X241300Y10375900D01*
X50800Y10134600D01*
X-139700Y9931400D01*
X-355600Y9715500D01*
X-533400Y9575800D01*
X-685800Y9474200D01*
X-838200Y9398000D01*
X-990600Y9321800D01*
X-1282954Y9247886D01*
X-1563878Y9227565D01*
X-1854454Y9209786D01*
X-2001773Y9189465D01*
X-2214371Y9110726D01*
X-2352294Y9026144D01*
X-2405634Y8975344D01*
X-2462529Y8943086D01*
X-2687573Y8993886D01*
X-2890773Y9051036D01*
X-3187954Y9046718D01*
X-3624834Y9029445D01*
X-3962907Y8985504D01*
X-4345431Y8894826D01*
X-4722113Y8762745D01*
X-5101844Y8582405D01*
X-5493004Y8354313D01*
X-5809234Y8137144D01*
X-6019800Y7937500D01*
X-6096000Y7874000D01*
X-6159500Y7874000D01*
X-6451600Y7861300D01*
X-6658863Y7812786D01*
X-6934454Y7706105D01*
X-7147305Y7591805D01*
X-7340854Y7452360D01*
X-7542276Y7266686D01*
X-8049513Y6702805D01*
X-8293354Y6456426D01*
X-8529574Y6248400D01*
X-8781795Y6055105D01*
X-9105900Y5867400D01*
X-9410700Y5727700D01*
X-9855200Y5600700D01*
X-10236200Y5486400D01*
X-10312400Y5461000D01*
X-10393934Y5427726D01*
X-10559034Y5364226D01*
X-10686034Y5288026D01*
X-10800334Y5199126D01*
X-10901934Y5072126D01*
X-10978134Y4970526D01*
X-11028934Y4818126D01*
X-11054334Y4703826D01*
X-11067034Y4526026D01*
X-11054334Y4335526D01*
X-10978134Y4030726D01*
X-10914634Y3852926D01*
X-10838434Y3687826D01*
X-10763250Y3534918D01*
X-10642854Y3395979D01*
X-10541000Y3276600D01*
X-10414000Y3162300D01*
X-10312400Y3086100D01*
X-10185400Y3009900D01*
X-10076434Y2963926D01*
X-9974834Y2925826D01*
X-9701529Y2857500D01*
X-9626600Y2844800D01*
X-9537700Y2844800D01*
X-9486900Y2844800D01*
X-9436100Y2844800D01*
X-9220200Y2882900D01*
X-8984234Y2938526D01*
X-8788400Y3022600D01*
X-8686800Y3060700D01*
X-8597900Y3111500D01*
X-8470900Y3175000D01*
X-8331200Y3251200D01*
X-8178800Y3352800D01*
X-8031734Y3459226D01*
X-7701534Y3700526D01*
X-7523734Y3891026D01*
X-7244334Y4170426D01*
X-6952234Y4589526D01*
X-6939534Y4614926D01*
X-6939534Y4614926D01*
X-6876034Y4678426D01*
X-6914134Y4627626D01*
X-6876034Y4691126D01*
X-6888734Y4678426D01*
X-6888734Y4704587D01*
X-6825234Y4576826D01*
X-6787134Y4526026D01*
X-6698234Y4399026D01*
X-6583934Y4310126D01*
X-6456934Y4221226D01*
X-6380734Y4195826D01*
X-6418834Y4183126D01*
X-6418834Y4195826D01*
X-6609334Y4030726D01*
X-6672834Y3954526D01*
X-6787134Y3827526D01*
X-6812534Y3789426D01*
X-6825234Y3764026D01*
X-6888734Y3637026D01*
X-6939534Y3522726D01*
X-6952234Y3484626D01*
X-7015734Y3268726D01*
X-7041134Y3090926D01*
X-7041134Y2913126D01*
X-7026655Y2750565D01*
X-6987031Y2603245D01*
X-6929373Y2461768D01*
X-6803644Y2243836D01*
X-6761734Y2189226D01*
X-6698234Y2113026D01*
X-6647434Y2049526D01*
X-6596634Y2011426D01*
X-6533134Y1947926D01*
X-6406134Y1871726D01*
X-6210300Y1790700D01*
X-6096000Y1752600D01*
X-5961634Y1719326D01*
X-5796534Y1706626D01*
X-5676900Y1701800D01*
X-5567934Y1719326D01*
X-5326634Y1782826D01*
X-5288534Y1617726D01*
X-5223255Y1472184D01*
X-5223255Y1472184D01*
X-5059934Y1312926D01*
X-4907534Y1236726D01*
X-4818634Y1198626D01*
X-4729734Y1185926D01*
X-4615434Y1185926D01*
D11*
X-4653000Y7805399D02*
G01*
X-4653000Y8215398D01*
X-4653000Y8215398D02*
G01*
X-3253000Y8215398D01*
X-3253000Y8215398D02*
G01*
X-3253000Y7805399D01*
X-3253000Y7805399D02*
G01*
X-4653000Y7805399D01*

%LPD*%
M02*
