G04 Layer: BottomSolderMaskLayer*
G04 EasyEDA v6.5.57, 2026-08-20 09:28:20*
G04 d37e67de4a31421e9a911c6ddd497033,47083fb59e924f2e982a52276fdf08c8,10*
G04 Gerber Generator version 0.2*
G04 Scale: 100 percent, Rotated: No, Reflected: No *
G04 Dimensions in millimeters *
G04 leading zeros omitted , absolute positions ,4 integer and 5 decimal *
%FSLAX45Y45*%
%MOMM*%

%AMMACRO1*4,1,8,-1.2209,-3.1001,-1.2501,-3.0706,-1.2501,3.0709,-1.2209,3.1001,1.2206,3.1001,1.2501,3.0709,1.2501,-3.0706,1.2206,-3.1001,-1.2209,-3.1001,0*%
%AMMACRO2*4,1,8,-1.2207,-3.1001,-1.2499,-3.0706,-1.2499,3.0709,-1.2207,3.1001,1.2205,3.1001,1.2499,3.0709,1.2499,-3.0706,1.2205,-3.1001,-1.2207,-3.1001,0*%
%AMMACRO3*4,1,8,-0.6561,-0.6858,-0.6858,-0.6558,-0.6858,0.6561,-0.6561,0.6858,0.6558,0.6858,0.6858,0.6561,0.6858,-0.6558,0.6558,-0.6858,-0.6561,-0.6858,0*%
%ADD10MACRO1*%
%ADD11C,10.1000*%
%ADD12MACRO2*%
%ADD13C,1.7016*%
%ADD14C,1.3716*%
%ADD15MACRO3*%
%ADD16C,0.0194*%

%LPD*%
G36*
X1942541Y11456670D02*
G01*
X1909927Y11456263D01*
X1877314Y11455044D01*
X1844751Y11453012D01*
X1812239Y11450167D01*
X1779828Y11446510D01*
X1747520Y11442039D01*
X1715312Y11436756D01*
X1699260Y11433860D01*
X1667256Y11427358D01*
X1635455Y11420094D01*
X1619605Y11416182D01*
X1588109Y11407698D01*
X1556816Y11398453D01*
X1541272Y11393576D01*
X1510334Y11383162D01*
X1479651Y11371986D01*
X1449273Y11360048D01*
X1419250Y11347399D01*
X1389481Y11333937D01*
X1374749Y11326977D01*
X1345539Y11312398D01*
X1316685Y11297158D01*
X1288237Y11281206D01*
X1260195Y11264493D01*
X1232560Y11247120D01*
X1205382Y11229086D01*
X1178712Y11210340D01*
X1152448Y11190935D01*
X1126693Y11170920D01*
X1101445Y11150244D01*
X1076756Y11128959D01*
X1064564Y11118088D01*
X1040688Y11095837D01*
X1017320Y11073079D01*
X994562Y11049660D01*
X972362Y11025733D01*
X950823Y11001248D01*
X929843Y10976254D01*
X909523Y10950702D01*
X889863Y10924692D01*
X870813Y10898174D01*
X852474Y10871200D01*
X834796Y10843768D01*
X817778Y10815929D01*
X801522Y10787634D01*
X785926Y10758982D01*
X771093Y10729925D01*
X756970Y10700512D01*
X743559Y10670743D01*
X730910Y10640669D01*
X719023Y10610291D01*
X707898Y10579608D01*
X697534Y10548670D01*
X687984Y10517479D01*
X679145Y10486085D01*
X675030Y10470286D01*
X667410Y10438536D01*
X660603Y10406634D01*
X654558Y10374579D01*
X649376Y10342372D01*
X644956Y10310063D01*
X643026Y10293858D01*
X639826Y10261346D01*
X637438Y10228834D01*
X635863Y10196220D01*
X635101Y10163606D01*
X635101Y10130993D01*
X635863Y10098379D01*
X637438Y10065766D01*
X639826Y10033254D01*
X643026Y10000742D01*
X647039Y9968382D01*
X651865Y9936124D01*
X654558Y9920020D01*
X660603Y9887966D01*
X667410Y9856063D01*
X675030Y9824313D01*
X683463Y9792766D01*
X692658Y9761474D01*
X702614Y9730435D01*
X713384Y9699599D01*
X724865Y9669068D01*
X737158Y9638842D01*
X750163Y9608921D01*
X763930Y9579305D01*
X778408Y9550095D01*
X793648Y9521240D01*
X809548Y9492742D01*
X826211Y9464700D01*
X843534Y9437065D01*
X861568Y9409836D01*
X880262Y9383115D01*
X899617Y9356852D01*
X919632Y9331045D01*
X940257Y9305798D01*
X961542Y9281007D01*
X983386Y9256826D01*
X1005890Y9233154D01*
X1028903Y9210090D01*
X1052576Y9187586D01*
X1064564Y9176512D01*
X1089050Y9154922D01*
X1113993Y9133941D01*
X1139494Y9113570D01*
X1165504Y9093860D01*
X1191971Y9074810D01*
X1218946Y9056420D01*
X1246327Y9038691D01*
X1274165Y9021673D01*
X1302410Y9005316D01*
X1331061Y8989720D01*
X1360119Y8974836D01*
X1374749Y8967622D01*
X1404315Y8953855D01*
X1434236Y8940800D01*
X1464462Y8928455D01*
X1494942Y8916924D01*
X1525778Y8906154D01*
X1541272Y8901023D01*
X1572412Y8891422D01*
X1603857Y8882583D01*
X1619605Y8878417D01*
X1651355Y8870746D01*
X1683257Y8863888D01*
X1699260Y8860739D01*
X1731365Y8855100D01*
X1763623Y8850223D01*
X1796034Y8846159D01*
X1828495Y8842908D01*
X1861007Y8840470D01*
X1893620Y8838844D01*
X1926234Y8838031D01*
X1958848Y8838031D01*
X1991461Y8838844D01*
X2024075Y8840470D01*
X2056587Y8842908D01*
X2089099Y8846159D01*
X2121458Y8850223D01*
X2153716Y8855100D01*
X2185873Y8860739D01*
X2217826Y8867241D01*
X2233777Y8870746D01*
X2265476Y8878417D01*
X2296972Y8886901D01*
X2328265Y8896146D01*
X2343861Y8901023D01*
X2374747Y8911437D01*
X2405430Y8922613D01*
X2420670Y8928455D01*
X2450896Y8940800D01*
X2465882Y8947200D01*
X2495600Y8960662D01*
X2525014Y8974836D01*
X2554020Y8989720D01*
X2582672Y9005316D01*
X2610916Y9021673D01*
X2638755Y9038691D01*
X2666136Y9056420D01*
X2693111Y9074810D01*
X2719578Y9093860D01*
X2745587Y9113570D01*
X2771089Y9133941D01*
X2796082Y9154922D01*
X2820517Y9176512D01*
X2844444Y9198762D01*
X2867761Y9221520D01*
X2890520Y9244939D01*
X2912719Y9268866D01*
X2923590Y9281007D01*
X2944825Y9305798D01*
X2965500Y9331045D01*
X2985465Y9356852D01*
X3004820Y9383115D01*
X3023514Y9409836D01*
X3041548Y9437065D01*
X3058871Y9464700D01*
X3075533Y9492742D01*
X3091484Y9521240D01*
X3106674Y9550095D01*
X3121152Y9579305D01*
X3134918Y9608921D01*
X3147974Y9638842D01*
X3160217Y9669068D01*
X3171748Y9699599D01*
X3182467Y9730435D01*
X3192424Y9761474D01*
X3201619Y9792766D01*
X3210052Y9824313D01*
X3217672Y9856063D01*
X3224479Y9887966D01*
X3230524Y9920020D01*
X3235756Y9952228D01*
X3240176Y9984536D01*
X3243783Y10016998D01*
X3246577Y10049510D01*
X3248558Y10082072D01*
X3249726Y10114686D01*
X3250082Y10147300D01*
X3249726Y10179913D01*
X3248558Y10212527D01*
X3246577Y10245090D01*
X3243783Y10277602D01*
X3240176Y10310063D01*
X3235756Y10342372D01*
X3230524Y10374579D01*
X3224479Y10406634D01*
X3217672Y10438536D01*
X3210052Y10470286D01*
X3201619Y10501833D01*
X3192424Y10533126D01*
X3182467Y10564164D01*
X3171748Y10595000D01*
X3160217Y10625531D01*
X3147974Y10655757D01*
X3134918Y10685678D01*
X3121152Y10715294D01*
X3106674Y10744504D01*
X3091484Y10773359D01*
X3075533Y10801858D01*
X3058871Y10829899D01*
X3041548Y10857534D01*
X3023514Y10884763D01*
X3004820Y10911484D01*
X2985465Y10937748D01*
X2965500Y10963554D01*
X2944825Y10988802D01*
X2923590Y11013592D01*
X2901696Y11037773D01*
X2879242Y11061446D01*
X2856179Y11084509D01*
X2832557Y11107013D01*
X2808376Y11128959D01*
X2783636Y11150244D01*
X2758389Y11170920D01*
X2732633Y11190935D01*
X2706420Y11210340D01*
X2679700Y11229086D01*
X2652522Y11247120D01*
X2624886Y11264493D01*
X2596845Y11281206D01*
X2568397Y11297158D01*
X2539542Y11312398D01*
X2510332Y11326977D01*
X2480767Y11340744D01*
X2465882Y11347399D01*
X2435809Y11360048D01*
X2420670Y11366144D01*
X2390140Y11377676D01*
X2359355Y11388445D01*
X2343861Y11393576D01*
X2312670Y11403177D01*
X2281275Y11412016D01*
X2265476Y11416182D01*
X2233777Y11423853D01*
X2201875Y11430711D01*
X2185873Y11433860D01*
X2153716Y11439499D01*
X2121458Y11444376D01*
X2089099Y11448440D01*
X2056587Y11451691D01*
X2024075Y11454130D01*
X1991461Y11455755D01*
X1958848Y11456568D01*
G37*
G36*
X-9487458Y5576570D02*
G01*
X-9520072Y5576163D01*
X-9552686Y5574944D01*
X-9585248Y5572912D01*
X-9617760Y5570067D01*
X-9650171Y5566410D01*
X-9682480Y5561939D01*
X-9714687Y5556656D01*
X-9730740Y5553760D01*
X-9762744Y5547258D01*
X-9794544Y5539994D01*
X-9810394Y5536082D01*
X-9841890Y5527598D01*
X-9873183Y5518353D01*
X-9888728Y5513476D01*
X-9919665Y5503062D01*
X-9950348Y5491886D01*
X-9980726Y5479948D01*
X-10010749Y5467299D01*
X-10040518Y5453837D01*
X-10055250Y5446877D01*
X-10084460Y5432298D01*
X-10113314Y5417058D01*
X-10141762Y5401106D01*
X-10169804Y5384393D01*
X-10197439Y5367020D01*
X-10224617Y5348986D01*
X-10251287Y5330240D01*
X-10277551Y5310835D01*
X-10303306Y5290820D01*
X-10328554Y5270144D01*
X-10353243Y5248859D01*
X-10365435Y5237988D01*
X-10389311Y5215737D01*
X-10412679Y5192979D01*
X-10435437Y5169560D01*
X-10457637Y5145633D01*
X-10479176Y5121148D01*
X-10500156Y5096154D01*
X-10520476Y5070602D01*
X-10540136Y5044592D01*
X-10559186Y5018074D01*
X-10577525Y4991100D01*
X-10595203Y4963668D01*
X-10612221Y4935829D01*
X-10628477Y4907534D01*
X-10644073Y4878882D01*
X-10658906Y4849825D01*
X-10673029Y4820412D01*
X-10686440Y4790643D01*
X-10699089Y4760569D01*
X-10710976Y4730191D01*
X-10722102Y4699508D01*
X-10732465Y4668570D01*
X-10742015Y4637379D01*
X-10750854Y4605985D01*
X-10754969Y4590186D01*
X-10762589Y4558436D01*
X-10769396Y4526534D01*
X-10775442Y4494479D01*
X-10780623Y4462272D01*
X-10785043Y4429963D01*
X-10786973Y4413758D01*
X-10790174Y4381246D01*
X-10792561Y4348734D01*
X-10794136Y4316120D01*
X-10794898Y4283506D01*
X-10794898Y4250893D01*
X-10794136Y4218279D01*
X-10792561Y4185665D01*
X-10790174Y4153154D01*
X-10786973Y4120642D01*
X-10782960Y4088282D01*
X-10778134Y4056024D01*
X-10775442Y4039920D01*
X-10769396Y4007865D01*
X-10762589Y3975963D01*
X-10754969Y3944213D01*
X-10746536Y3912666D01*
X-10737342Y3881374D01*
X-10727385Y3850335D01*
X-10716615Y3819499D01*
X-10705134Y3788968D01*
X-10692841Y3758742D01*
X-10679836Y3728821D01*
X-10666069Y3699205D01*
X-10651591Y3669995D01*
X-10636351Y3641140D01*
X-10620451Y3612642D01*
X-10603788Y3584600D01*
X-10586466Y3556965D01*
X-10568432Y3529736D01*
X-10549737Y3503015D01*
X-10530382Y3476751D01*
X-10510367Y3450945D01*
X-10489742Y3425698D01*
X-10468457Y3400907D01*
X-10446613Y3376726D01*
X-10424109Y3353054D01*
X-10401096Y3329990D01*
X-10377424Y3307486D01*
X-10365435Y3296412D01*
X-10340949Y3274822D01*
X-10316006Y3253841D01*
X-10290505Y3233470D01*
X-10264495Y3213760D01*
X-10238028Y3194710D01*
X-10211054Y3176320D01*
X-10183672Y3158591D01*
X-10155834Y3141573D01*
X-10127589Y3125216D01*
X-10098938Y3109620D01*
X-10069880Y3094736D01*
X-10055250Y3087522D01*
X-10025684Y3073755D01*
X-9995763Y3060700D01*
X-9965537Y3048355D01*
X-9935057Y3036824D01*
X-9904222Y3026054D01*
X-9888728Y3020923D01*
X-9857587Y3011322D01*
X-9826142Y3002483D01*
X-9810394Y2998317D01*
X-9778644Y2990646D01*
X-9746742Y2983788D01*
X-9730740Y2980639D01*
X-9698634Y2975000D01*
X-9666376Y2970123D01*
X-9633966Y2966059D01*
X-9601504Y2962808D01*
X-9568992Y2960370D01*
X-9536379Y2958744D01*
X-9503765Y2957931D01*
X-9471152Y2957931D01*
X-9438538Y2958744D01*
X-9405924Y2960370D01*
X-9373412Y2962808D01*
X-9340900Y2966059D01*
X-9308541Y2970123D01*
X-9276283Y2975000D01*
X-9244126Y2980639D01*
X-9212173Y2987141D01*
X-9196222Y2990646D01*
X-9164523Y2998317D01*
X-9133027Y3006801D01*
X-9101734Y3016046D01*
X-9086138Y3020923D01*
X-9055252Y3031337D01*
X-9024569Y3042513D01*
X-9009329Y3048355D01*
X-8979103Y3060700D01*
X-8964117Y3067100D01*
X-8934399Y3080562D01*
X-8904986Y3094736D01*
X-8875979Y3109620D01*
X-8847328Y3125216D01*
X-8819083Y3141573D01*
X-8791244Y3158591D01*
X-8763863Y3176320D01*
X-8736888Y3194710D01*
X-8710422Y3213760D01*
X-8684412Y3233470D01*
X-8658910Y3253841D01*
X-8633917Y3274822D01*
X-8609482Y3296412D01*
X-8585555Y3318662D01*
X-8562238Y3341420D01*
X-8539480Y3364839D01*
X-8517280Y3388766D01*
X-8506409Y3400907D01*
X-8485174Y3425698D01*
X-8464499Y3450945D01*
X-8444534Y3476751D01*
X-8425180Y3503015D01*
X-8406485Y3529736D01*
X-8388451Y3556965D01*
X-8371128Y3584600D01*
X-8354466Y3612642D01*
X-8338515Y3641140D01*
X-8323325Y3669995D01*
X-8308848Y3699205D01*
X-8295081Y3728821D01*
X-8282025Y3758742D01*
X-8269782Y3788968D01*
X-8258251Y3819499D01*
X-8247532Y3850335D01*
X-8237575Y3881374D01*
X-8228380Y3912666D01*
X-8219948Y3944213D01*
X-8212328Y3975963D01*
X-8205520Y4007865D01*
X-8199475Y4039920D01*
X-8194243Y4072128D01*
X-8189823Y4104436D01*
X-8186216Y4136898D01*
X-8183422Y4169410D01*
X-8181441Y4201972D01*
X-8180273Y4234586D01*
X-8179917Y4267200D01*
X-8180273Y4299813D01*
X-8181441Y4332427D01*
X-8183422Y4364990D01*
X-8186216Y4397502D01*
X-8189823Y4429963D01*
X-8194243Y4462272D01*
X-8199475Y4494479D01*
X-8205520Y4526534D01*
X-8212328Y4558436D01*
X-8219948Y4590186D01*
X-8228380Y4621733D01*
X-8237575Y4653026D01*
X-8247532Y4684064D01*
X-8258251Y4714900D01*
X-8269782Y4745431D01*
X-8282025Y4775657D01*
X-8295081Y4805578D01*
X-8308848Y4835194D01*
X-8323325Y4864404D01*
X-8338515Y4893259D01*
X-8354466Y4921758D01*
X-8371128Y4949799D01*
X-8388451Y4977434D01*
X-8406485Y5004663D01*
X-8425180Y5031384D01*
X-8444534Y5057648D01*
X-8464499Y5083454D01*
X-8485174Y5108702D01*
X-8506409Y5133492D01*
X-8528304Y5157673D01*
X-8550757Y5181346D01*
X-8573820Y5204409D01*
X-8597442Y5226913D01*
X-8621623Y5248859D01*
X-8646363Y5270144D01*
X-8671610Y5290820D01*
X-8697366Y5310835D01*
X-8723579Y5330240D01*
X-8750300Y5348986D01*
X-8777478Y5367020D01*
X-8805113Y5384393D01*
X-8833154Y5401106D01*
X-8861602Y5417058D01*
X-8890457Y5432298D01*
X-8919667Y5446877D01*
X-8949232Y5460644D01*
X-8964117Y5467299D01*
X-8994190Y5479948D01*
X-9009329Y5486044D01*
X-9039860Y5497576D01*
X-9070644Y5508345D01*
X-9086138Y5513476D01*
X-9117330Y5523077D01*
X-9148724Y5531916D01*
X-9164523Y5536082D01*
X-9196222Y5543753D01*
X-9228124Y5550611D01*
X-9244126Y5553760D01*
X-9276283Y5559399D01*
X-9308541Y5564276D01*
X-9340900Y5568340D01*
X-9373412Y5571591D01*
X-9405924Y5574030D01*
X-9438538Y5575655D01*
X-9471152Y5576468D01*
G37*
D10*
G01*
X-4233811Y2667000D03*
D11*
G01*
X-3098800Y2667000D03*
D12*
G01*
X-1963800Y2667000D03*
D13*
G01*
X-5332945Y3984261D03*
G01*
X-5410197Y3746512D03*
G01*
X-5487456Y3508738D03*
D14*
G01*
X-2195093Y7112000D03*
D15*
G01*
X-1945106Y7112000D03*
D14*
G01*
X-5751093Y5969000D03*
D15*
G01*
X-5501106Y5969000D03*
M02*
