999
"DXF R12 Output" (www.mydxf.blogspot.com)
 0 
SECTION
 2 
HEADER
 9 
$ACADVER
 1 
AC1009
 9 
$EXTMIN
 10 
 0 
 20 
 0 
 9 
$EXTMAX
 10 
 8.5 
 20 
 11 
 0 
ENDSEC
 0 
SECTION
 2 
ENTITIES
0
POLYLINE
8
Layer 1
62
7
70
0
10
0.000000
20
0.000000
66
1
0
VERTEX
8
Layer 1
10
75.912350
20
34.752770
70
0
0
VERTEX
8
Layer 1
10
74.397591
20
35.228852
70
0
0
VERTEX
8
Layer 1
10
73.108505
20
35.967650
70
0
0
VERTEX
8
Layer 1
10
72.069643
20
36.951000
70
0
0
VERTEX
8
Layer 1
10
71.305554
20
38.160740
70
0
0
VERTEX
8
Layer 1
10
71.019202
20
38.924489
70
0
0
VERTEX
8
Layer 1
10
70.799849
20
40.113360
70
0
0
VERTEX
8
Layer 1
10
70.637545
20
41.056480
70
0
0
VERTEX
8
Layer 1
10
69.883762
20
40.814400
70
0
0
VERTEX
8
Layer 1
10
68.055837
20
40.296736
70
0
0
VERTEX
8
Layer 1
10
66.244161
20
40.064447
70
0
0
VERTEX
8
Layer 1
10
64.433264
20
40.116765
70
0
0
VERTEX
8
Layer 1
10
62.607674
20
40.452920
70
0
0
VERTEX
8
Layer 1
10
61.021802
20
40.984312
70
0
0
VERTEX
8
Layer 1
10
59.459704
20
41.726891
70
0
0
VERTEX
8
Layer 1
10
58.030721
20
42.620830
70
0
0
VERTEX
8
Layer 1
10
56.844198
20
43.606300
70
0
0
VERTEX
8
Layer 1
10
55.689837
20
44.932555
70
0
0
VERTEX
8
Layer 1
10
54.702895
20
46.460480
70
0
0
VERTEX
8
Layer 1
10
53.914320
20
48.134265
70
0
0
VERTEX
8
Layer 1
10
53.355062
20
49.898100
70
0
0
VERTEX
8
Layer 1
10
53.079701
20
51.520065
70
0
0
VERTEX
8
Layer 1
10
52.994996
20
53.255039
70
0
0
VERTEX
8
Layer 1
10
53.100299
20
54.993648
70
0
0
VERTEX
8
Layer 1
10
53.394962
20
56.626520
70
0
0
VERTEX
8
Layer 1
10
54.239862
20
59.071505
70
0
0
VERTEX
8
Layer 1
10
55.468640
20
61.266304
70
0
0
VERTEX
8
Layer 1
10
57.057358
20
63.176041
70
0
0
VERTEX
8
Layer 1
10
58.982076
20
64.765840
70
0
0
VERTEX
8
Layer 1
10
59.699722
20
65.146930
70
0
0
VERTEX
8
Layer 1
10
59.969612
20
65.288030
70
0
0
VERTEX
8
Layer 1
10
59.649626
20
65.618752
70
0
0
VERTEX
8
Layer 1
10
58.814966
20
66.120040
70
0
0
VERTEX
8
Layer 1
10
57.631335
20
66.823190
70
0
0
VERTEX
8
Layer 1
10
56.230684
20
68.178715
70
0
0
VERTEX
8
Layer 1
10
54.974617
20
70.141620
70
0
0
VERTEX
8
Layer 1
10
54.180076
20
71.360910
70
0
0
VERTEX
8
Layer 1
10
52.231708
20
68.882880
70
0
0
VERTEX
8
Layer 1
10
50.155887
20
66.143260
70
0
0
VERTEX
8
Layer 1
10
48.133310
20
63.784127
70
0
0
VERTEX
8
Layer 1
10
46.032077
20
61.616803
70
0
0
VERTEX
8
Layer 1
10
43.854835
20
59.643233
70
0
0
VERTEX
8
Layer 1
10
41.604231
20
57.865361
70
0
0
VERTEX
8
Layer 1
10
39.282913
20
56.285132
70
0
0
VERTEX
8
Layer 1
10
36.893527
20
54.904489
70
0
0
VERTEX
8
Layer 1
10
34.438721
20
53.725377
70
0
0
VERTEX
8
Layer 1
10
31.921142
20
52.749740
70
0
0
VERTEX
8
Layer 1
10
30.136918
20
52.242556
70
0
0
VERTEX
8
Layer 1
10
27.752550
20
52.133450
70
0
0
VERTEX
8
Layer 1
10
25.431178
20
52.154487
70
0
0
VERTEX
8
Layer 1
10
23.654423
20
52.333220
70
0
0
VERTEX
8
Layer 1
10
22.170218
20
52.712811
70
0
0
VERTEX
8
Layer 1
10
20.726492
20
53.336420
70
0
0
VERTEX
8
Layer 1
10
19.029687
20
54.361616
70
0
0
VERTEX
8
Layer 1
10
17.468067
20
55.660536
70
0
0
VERTEX
8
Layer 1
10
16.033935
20
57.240574
70
0
0
VERTEX
8
Layer 1
10
14.719597
20
59.109120
70
0
0
VERTEX
8
Layer 1
10
13.772224
20
60.811507
70
0
0
VERTEX
8
Layer 1
10
12.973551
20
62.628913
70
0
0
VERTEX
8
Layer 1
10
12.344336
20
64.507604
70
0
0
VERTEX
8
Layer 1
10
11.905337
20
66.393850
70
0
0
VERTEX
8
Layer 1
10
11.737157
20
68.741000
70
0
0
VERTEX
8
Layer 1
10
11.877097
20
70.919070
70
0
0
VERTEX
8
Layer 1
10
12.241479
20
72.269356
70
0
0
VERTEX
8
Layer 1
10
12.749344
20
73.470430
70
0
0
VERTEX
8
Layer 1
10
13.418055
20
74.538882
70
0
0
VERTEX
8
Layer 1
10
14.264973
20
75.491301
70
0
0
VERTEX
8
Layer 1
10
15.307461
20
76.344279
70
0
0
VERTEX
8
Layer 1
10
16.562880
20
77.114404
70
0
0
VERTEX
8
Layer 1
10
19.781960
20
78.472460
70
0
0
VERTEX
8
Layer 1
10
23.025115
20
79.440020
70
0
0
VERTEX
8
Layer 1
10
26.908738
20
80.578360
70
0
0
VERTEX
8
Layer 1
10
29.733237
20
81.619203
70
0
0
VERTEX
8
Layer 1
10
32.178791
20
82.856586
70
0
0
VERTEX
8
Layer 1
10
34.925577
20
84.584550
70
0
0
VERTEX
8
Layer 1
10
37.928852
20
86.703551
70
0
0
VERTEX
8
Layer 1
10
40.406678
20
88.799730
70
0
0
VERTEX
8
Layer 1
10
45.332380
20
93.769060
70
0
0
VERTEX
8
Layer 1
10
49.586716
20
98.069440
70
0
0
VERTEX
8
Layer 1
10
51.093983
20
99.348399
70
0
0
VERTEX
8
Layer 1
10
52.538151
20
100.367026
70
0
0
VERTEX
8
Layer 1
10
54.093464
20
101.234913
70
0
0
VERTEX
8
Layer 1
10
55.934171
20
102.061650
70
0
0
VERTEX
8
Layer 1
10
58.416432
20
102.867244
70
0
0
VERTEX
8
Layer 1
10
61.178995
20
103.053360
70
0
0
VERTEX
8
Layer 1
10
62.353206
20
103.053990
70
0
0
VERTEX
8
Layer 1
10
63.676364
20
104.209260
70
0
0
VERTEX
8
Layer 1
10
66.003059
20
106.152723
70
0
0
VERTEX
8
Layer 1
10
68.203672
20
107.795146
70
0
0
VERTEX
8
Layer 1
10
70.406001
20
109.225726
70
0
0
VERTEX
8
Layer 1
10
72.737846
20
110.533660
70
0
0
VERTEX
8
Layer 1
10
75.427594
20
111.834046
70
0
0
VERTEX
8
Layer 1
10
78.189847
20
112.903950
70
0
0
VERTEX
8
Layer 1
10
82.854553
20
114.235776
70
0
0
VERTEX
8
Layer 1
10
87.827579
20
115.024400
70
0
0
VERTEX
8
Layer 1
10
91.872613
20
115.156770
70
0
0
VERTEX
8
Layer 1
10
95.141932
20
115.066791
70
0
0
VERTEX
8
Layer 1
10
97.917919
20
114.464240
70
0
0
VERTEX
8
Layer 1
10
99.601623
20
114.027540
70
0
0
VERTEX
8
Layer 1
10
100.239421
20
114.560420
70
0
0
VERTEX
8
Layer 1
10
102.027091
20
115.821250
70
0
0
VERTEX
8
Layer 1
10
104.069006
20
116.562886
70
0
0
VERTEX
8
Layer 1
10
106.892001
20
117.008430
70
0
0
VERTEX
8
Layer 1
10
111.359121
20
117.497320
70
0
0
VERTEX
8
Layer 1
10
114.491406
20
118.268578
70
0
0
VERTEX
8
Layer 1
10
117.492891
20
119.600250
70
0
0
VERTEX
8
Layer 1
10
119.891758
20
121.141834
70
0
0
VERTEX
8
Layer 1
10
122.311040
20
123.239494
70
0
0
VERTEX
8
Layer 1
10
124.978164
20
126.115621
70
0
0
VERTEX
8
Layer 1
10
128.120561
20
129.992610
70
0
0
VERTEX
8
Layer 1
10
131.195185
20
133.811349
70
0
0
VERTEX
8
Layer 1
10
133.665331
20
136.511230
70
0
0
VERTEX
8
Layer 1
10
136.350978
20
138.960756
70
0
0
VERTEX
8
Layer 1
10
138.981285
20
140.818909
70
0
0
VERTEX
8
Layer 1
10
141.652517
20
142.143479
70
0
0
VERTEX
8
Layer 1
10
144.460941
20
142.992260
70
0
0
VERTEX
8
Layer 1
10
146.253020
20
143.291879
70
0
0
VERTEX
8
Layer 1
10
147.834341
20
143.406300
70
0
0
VERTEX
8
Layer 1
10
149.320614
20
143.286440
70
0
0
VERTEX
8
Layer 1
10
150.865401
20
142.965359
70
0
0
VERTEX
8
Layer 1
10
152.286776
20
142.491800
70
0
0
VERTEX
8
Layer 1
10
153.402811
20
141.914510
70
0
0
VERTEX
8
Layer 1
10
154.617551
20
140.937916
70
0
0
VERTEX
8
Layer 1
10
155.755271
20
139.727949
70
0
0
VERTEX
8
Layer 1
10
156.764809
20
138.346357
70
0
0
VERTEX
8
Layer 1
10
157.595001
20
136.854890
70
0
0
VERTEX
8
Layer 1
10
158.442618
20
134.746843
70
0
0
VERTEX
8
Layer 1
10
158.955721
20
132.569986
70
0
0
VERTEX
8
Layer 1
10
159.181057
20
130.025444
70
0
0
VERTEX
8
Layer 1
10
159.165371
20
126.814340
70
0
0
VERTEX
8
Layer 1
10
158.922072
20
123.500398
70
0
0
VERTEX
8
Layer 1
10
158.163501
20
120.833360
70
0
0
VERTEX
8
Layer 1
10
156.568570
20
117.127625
70
0
0
VERTEX
8
Layer 1
10
154.525857
20
113.785719
70
0
0
VERTEX
8
Layer 1
10
152.007024
20
110.768133
70
0
0
VERTEX
8
Layer 1
10
148.983731
20
108.035360
70
0
0
VERTEX
8
Layer 1
10
144.878344
20
105.107496
70
0
0
VERTEX
8
Layer 1
10
140.591922
20
102.741545
70
0
0
VERTEX
8
Layer 1
10
135.870150
20
100.816362
70
0
0
VERTEX
8
Layer 1
10
130.458711
20
99.210800
70
0
0
VERTEX
8
Layer 1
10
126.255881
20
98.330706
70
0
0
VERTEX
8
Layer 1
10
121.032031
20
97.907640
70
0
0
VERTEX
8
Layer 1
10
118.077391
20
97.658800
70
0
0
VERTEX
8
Layer 1
10
118.637691
20
96.386580
70
0
0
VERTEX
8
Layer 1
10
119.362723
20
94.600437
70
0
0
VERTEX
8
Layer 1
10
119.824556
20
92.907975
70
0
0
VERTEX
8
Layer 1
10
120.069819
20
91.076830
70
0
0
VERTEX
8
Layer 1
10
120.145141
20
88.874640
70
0
0
VERTEX
8
Layer 1
10
120.026521
20
86.727380
70
0
0
VERTEX
8
Layer 1
10
119.407392
20
84.728680
70
0
0
VERTEX
8
Layer 1
10
118.546407
20
82.902623
70
0
0
VERTEX
8
Layer 1
10
117.471172
20
81.298119
70
0
0
VERTEX
8
Layer 1
10
116.209291
20
79.964080
70
0
0
VERTEX
8
Layer 1
10
114.638901
20
78.815740
70
0
0
VERTEX
8
Layer 1
10
113.715791
20
78.170570
70
0
0
VERTEX
8
Layer 1
10
114.155471
20
77.576860
70
0
0
VERTEX
8
Layer 1
10
115.031625
20
76.433993
70
0
0
VERTEX
8
Layer 1
10
115.640711
20
75.363380
70
0
0
VERTEX
8
Layer 1
10
116.410727
20
73.461950
70
0
0
VERTEX
8
Layer 1
10
117.167161
20
70.528610
70
0
0
VERTEX
8
Layer 1
10
117.386416
20
69.084340
70
0
0
VERTEX
8
Layer 1
10
117.206415
20
68.749473
70
0
0
VERTEX
8
Layer 1
10
116.788831
20
68.425410
70
0
0
VERTEX
8
Layer 1
10
115.943781
20
67.794260
70
0
0
VERTEX
8
Layer 1
10
114.884421
20
67.143470
70
0
0
VERTEX
8
Layer 1
10
114.188360
20
66.826743
70
0
0
VERTEX
8
Layer 1
10
113.606141
20
66.771540
70
0
0
VERTEX
8
Layer 1
10
112.872561
20
66.674606
70
0
0
VERTEX
8
Layer 1
10
112.718341
20
66.289170
70
0
0
VERTEX
8
Layer 1
10
113.193241
20
64.529280
70
0
0
VERTEX
8
Layer 1
10
114.364766
20
60.234833
70
0
0
VERTEX
8
Layer 1
10
115.156761
20
56.399490
70
0
0
VERTEX
8
Layer 1
10
115.416467
20
54.141475
70
0
0
VERTEX
8
Layer 1
10
115.452381
20
52.037960
70
0
0
VERTEX
8
Layer 1
10
115.219013
20
49.635218
70
0
0
VERTEX
8
Layer 1
10
114.669430
20
47.530284
70
0
0
VERTEX
8
Layer 1
10
113.771852
20
45.635325
70
0
0
VERTEX
8
Layer 1
10
112.494501
20
43.862510
70
0
0
VERTEX
8
Layer 1
10
112.082211
20
43.376790
70
0
0
VERTEX
8
Layer 1
10
112.363931
20
42.579860
70
0
0
VERTEX
8
Layer 1
10
112.727904
20
41.220045
70
0
0
VERTEX
8
Layer 1
10
112.778241
20
39.894070
70
0
0
VERTEX
8
Layer 1
10
112.564019
20
38.490620
70
0
0
VERTEX
8
Layer 1
10
112.107037
20
37.238853
70
0
0
VERTEX
8
Layer 1
10
111.450520
20
36.226646
70
0
0
VERTEX
8
Layer 1
10
110.637691
20
35.541880
70
0
0
VERTEX
8
Layer 1
10
109.695848
20
35.178954
70
0
0
VERTEX
8
Layer 1
10
108.664836
20
35.080141
70
0
0
VERTEX
8
Layer 1
10
107.587099
20
35.244130
70
0
0
VERTEX
8
Layer 1
10
106.505081
20
35.669610
70
0
0
VERTEX
8
Layer 1
10
105.508892
20
36.303255
70
0
0
VERTEX
8
Layer 1
10
104.319151
20
37.355190
70
0
0
VERTEX
8
Layer 1
10
103.545751
20
38.094450
70
0
0
VERTEX
8
Layer 1
10
101.754211
20
37.738310
70
0
0
VERTEX
8
Layer 1
10
98.173855
20
37.092364
70
0
0
VERTEX
8
Layer 1
10
95.626177
20
36.775390
70
0
0
VERTEX
8
Layer 1
10
91.450522
20
36.736390
70
0
0
VERTEX
8
Layer 1
10
86.742774
20
36.895816
70
0
0
VERTEX
8
Layer 1
10
83.581347
20
37.309650
70
0
0
VERTEX
8
Layer 1
10
82.395271
20
37.533840
70
0
0
VERTEX
8
Layer 1
10
81.576418
20
36.694440
70
0
0
VERTEX
8
Layer 1
10
80.013624
20
35.362196
70
0
0
VERTEX
8
Layer 1
10
79.276075
20
34.993768
70
0
0
VERTEX
8
Layer 1
10
78.456620
20
34.754700
70
0
0
VERTEX
8
Layer 1
10
77.190488
20
34.647864
70
0
0
VERTEX
8
Layer 1
10
75.912351
20
34.752700
70
0
0
VERTEX
8
Layer 1
10
75.912350
20
34.752770
70
0
0
SEQEND
8
Layer 1
0
POLYLINE
8
Layer 1
62
7
70
0
10
0.000000
20
0.000000
66
1
0
VERTEX
8
Layer 1
10
77.771265
20
36.160710
70
0
0
VERTEX
8
Layer 1
10
78.800033
20
36.453950
70
0
0
VERTEX
8
Layer 1
10
80.089956
20
37.219980
70
0
0
VERTEX
8
Layer 1
10
80.792738
20
37.966450
70
0
0
VERTEX
8
Layer 1
10
81.225186
20
38.549230
70
0
0
VERTEX
8
Layer 1
10
81.657634
20
39.004400
70
0
0
VERTEX
8
Layer 1
10
82.227651
20
38.823450
70
0
0
VERTEX
8
Layer 1
10
83.800246
20
38.430792
70
0
0
VERTEX
8
Layer 1
10
85.701153
20
38.166095
70
0
0
VERTEX
8
Layer 1
10
91.008125
20
37.970020
70
0
0
VERTEX
8
Layer 1
10
94.372761
20
38.028830
70
0
0
VERTEX
8
Layer 1
10
96.937010
20
38.233920
70
0
0
VERTEX
8
Layer 1
10
102.484190
20
39.188050
70
0
0
VERTEX
8
Layer 1
10
103.801790
20
39.450550
70
0
0
VERTEX
8
Layer 1
10
103.998800
20
39.172890
70
0
0
VERTEX
8
Layer 1
10
104.281620
20
38.754170
70
0
0
VERTEX
8
Layer 1
10
104.429800
20
38.519300
70
0
0
VERTEX
8
Layer 1
10
105.257512
20
37.755084
70
0
0
VERTEX
8
Layer 1
10
106.794890
20
36.860840
70
0
0
VERTEX
8
Layer 1
10
107.962024
20
36.502825
70
0
0
VERTEX
8
Layer 1
10
109.001890
20
36.468600
70
0
0
VERTEX
8
Layer 1
10
109.853876
20
36.738482
70
0
0
VERTEX
8
Layer 1
10
110.541595
20
37.229745
70
0
0
VERTEX
8
Layer 1
10
111.039729
20
37.917223
70
0
0
VERTEX
8
Layer 1
10
111.322960
20
38.775750
70
0
0
VERTEX
8
Layer 1
10
111.391160
20
40.246957
70
0
0
VERTEX
8
Layer 1
10
111.307860
20
41.745900
70
0
0
VERTEX
8
Layer 1
10
111.221160
20
42.597400
70
0
0
VERTEX
8
Layer 1
10
111.407952
20
43.331120
70
0
0
VERTEX
8
Layer 1
10
112.709500
20
46.077450
70
0
0
VERTEX
8
Layer 1
10
113.514880
20
47.945596
70
0
0
VERTEX
8
Layer 1
10
114.028144
20
49.667466
70
0
0
VERTEX
8
Layer 1
10
114.286113
20
51.408396
70
0
0
VERTEX
8
Layer 1
10
114.325610
20
53.333720
70
0
0
VERTEX
8
Layer 1
10
113.988121
20
56.736489
70
0
0
VERTEX
8
Layer 1
10
113.013890
20
61.330430
70
0
0
VERTEX
8
Layer 1
10
111.905492
20
65.412399
70
0
0
VERTEX
8
Layer 1
10
111.504649
20
66.358909
70
0
0
VERTEX
8
Layer 1
10
111.135810
20
66.779540
70
0
0
VERTEX
8
Layer 1
10
110.987855
20
66.981309
70
0
0
VERTEX
8
Layer 1
10
111.102610
20
67.550090
70
0
0
VERTEX
8
Layer 1
10
111.230726
20
67.919157
70
0
0
VERTEX
8
Layer 1
10
111.395960
20
67.977710
70
0
0
VERTEX
8
Layer 1
10
112.449540
20
67.948810
70
0
0
VERTEX
8
Layer 1
10
113.511439
20
68.006305
70
0
0
VERTEX
8
Layer 1
10
114.426111
20
68.215026
70
0
0
VERTEX
8
Layer 1
10
115.213211
20
68.581632
70
0
0
VERTEX
8
Layer 1
10
115.892390
20
69.112780
70
0
0
VERTEX
8
Layer 1
10
116.436750
20
69.856190
70
0
0
VERTEX
8
Layer 1
10
116.463640
20
70.752660
70
0
0
VERTEX
8
Layer 1
10
115.939439
20
72.694541
70
0
0
VERTEX
8
Layer 1
10
115.033775
20
74.726534
70
0
0
VERTEX
8
Layer 1
10
113.960658
20
76.443210
70
0
0
VERTEX
8
Layer 1
10
112.934100
20
77.439140
70
0
0
VERTEX
8
Layer 1
10
112.695675
20
77.606169
70
0
0
VERTEX
8
Layer 1
10
112.695930
20
77.829290
70
0
0
VERTEX
8
Layer 1
10
112.792330
20
78.320290
70
0
0
VERTEX
8
Layer 1
10
113.022325
20
78.687672
70
0
0
VERTEX
8
Layer 1
10
113.962780
20
79.484130
70
0
0
VERTEX
8
Layer 1
10
115.707571
20
81.013066
70
0
0
VERTEX
8
Layer 1
10
116.943300
20
82.347910
70
0
0
VERTEX
8
Layer 1
10
118.062212
20
84.058997
70
0
0
VERTEX
8
Layer 1
10
118.822720
20
85.864832
70
0
0
VERTEX
8
Layer 1
10
119.238753
20
87.809827
70
0
0
VERTEX
8
Layer 1
10
119.324240
20
89.938390
70
0
0
VERTEX
8
Layer 1
10
119.109422
20
91.934084
70
0
0
VERTEX
8
Layer 1
10
118.597852
20
93.933096
70
0
0
VERTEX
8
Layer 1
10
117.787487
20
95.941605
70
0
0
VERTEX
8
Layer 1
10
116.676280
20
97.965790
70
0
0
VERTEX
8
Layer 1
10
116.318740
20
98.600530
70
0
0
VERTEX
8
Layer 1
10
116.934290
20
98.960210
70
0
0
VERTEX
8
Layer 1
10
117.916966
20
99.333605
70
0
0
VERTEX
8
Layer 1
10
119.207824
20
99.624379
70
0
0
VERTEX
8
Layer 1
10
123.072190
20
100.019890
70
0
0
VERTEX
8
Layer 1
10
127.217746
20
100.526729
70
0
0
VERTEX
8
Layer 1
10
131.652150
20
101.581480
70
0
0
VERTEX
8
Layer 1
10
135.647903
20
102.904845
70
0
0
VERTEX
8
Layer 1
10
139.504184
20
104.516945
70
0
0
VERTEX
8
Layer 1
10
143.046722
20
106.336945
70
0
0
VERTEX
8
Layer 1
10
146.101250
20
108.284010
70
0
0
VERTEX
8
Layer 1
10
148.695221
20
110.311212
70
0
0
VERTEX
8
Layer 1
10
150.896860
20
112.416940
70
0
0
VERTEX
8
Layer 1
10
152.488666
20
114.246692
70
0
0
VERTEX
8
Layer 1
10
153.849810
20
116.196730
70
0
0
VERTEX
8
Layer 1
10
155.134328
20
118.461040
70
0
0
VERTEX
8
Layer 1
10
156.142599
20
120.762925
70
0
0
VERTEX
8
Layer 1
10
156.887303
20
123.136202
70
0
0
VERTEX
8
Layer 1
10
157.381120
20
125.614690
70
0
0
VERTEX
8
Layer 1
10
157.509870
20
128.372106
70
0
0
VERTEX
8
Layer 1
10
157.379120
20
131.113870
70
0
0
VERTEX
8
Layer 1
10
157.001726
20
132.997490
70
0
0
VERTEX
8
Layer 1
10
156.459624
20
134.754871
70
0
0
VERTEX
8
Layer 1
10
155.769815
20
136.339882
70
0
0
VERTEX
8
Layer 1
10
154.949300
20
137.706390
70
0
0
VERTEX
8
Layer 1
10
153.964099
20
138.881220
70
0
0
VERTEX
8
Layer 1
10
152.864440
20
139.919280
70
0
0
VERTEX
8
Layer 1
10
151.790025
20
140.605062
70
0
0
VERTEX
8
Layer 1
10
150.555374
20
141.052459
70
0
0
VERTEX
8
Layer 1
10
149.078268
20
141.281994
70
0
0
VERTEX
8
Layer 1
10
147.276490
20
141.314190
70
0
0
VERTEX
8
Layer 1
10
144.691869
20
141.013234
70
0
0
VERTEX
8
Layer 1
10
142.136310
20
140.176320
70
0
0
VERTEX
8
Layer 1
10
140.144911
20
139.200599
70
0
0
VERTEX
8
Layer 1
10
138.214257
20
137.945607
70
0
0
VERTEX
8
Layer 1
10
136.281996
20
136.365585
70
0
0
VERTEX
8
Layer 1
10
134.285770
20
134.414770
70
0
0
VERTEX
8
Layer 1
10
132.258836
20
132.183514
70
0
0
VERTEX
8
Layer 1
10
130.109540
20
129.487550
70
0
0
VERTEX
8
Layer 1
10
125.747942
20
124.213850
70
0
0
VERTEX
8
Layer 1
10
123.808398
20
122.222514
70
0
0
VERTEX
8
Layer 1
10
121.848510
20
120.463610
70
0
0
VERTEX
8
Layer 1
10
119.546967
20
118.760482
70
0
0
VERTEX
8
Layer 1
10
117.156394
20
117.469700
70
0
0
VERTEX
8
Layer 1
10
114.568614
20
116.543081
70
0
0
VERTEX
8
Layer 1
10
111.675450
20
115.932440
70
0
0
VERTEX
8
Layer 1
10
108.861510
20
115.714920
70
0
0
VERTEX
8
Layer 1
10
105.961394
20
115.556682
70
0
0
VERTEX
8
Layer 1
10
104.490950
20
115.347670
70
0
0
VERTEX
8
Layer 1
10
102.358594
20
114.545229
70
0
0
VERTEX
8
Layer 1
10
100.966360
20
113.709150
70
0
0
VERTEX
8
Layer 1
10
100.437397
20
113.200796
70
0
0
VERTEX
8
Layer 1
10
99.875627
20
112.869090
70
0
0
VERTEX
8
Layer 1
10
97.635588
20
113.389980
70
0
0
VERTEX
8
Layer 1
10
95.600837
20
113.958320
70
0
0
VERTEX
8
Layer 1
10
92.611030
20
113.914520
70
0
0
VERTEX
8
Layer 1
10
88.249190
20
113.745802
70
0
0
VERTEX
8
Layer 1
10
84.872705
20
113.301760
70
0
0
VERTEX
8
Layer 1
10
81.047197
20
112.400986
70
0
0
VERTEX
8
Layer 1
10
77.280018
20
111.072735
70
0
0
VERTEX
8
Layer 1
10
73.483987
20
109.281044
70
0
0
VERTEX
8
Layer 1
10
69.571927
20
106.989950
70
0
0
VERTEX
8
Layer 1
10
66.403150
20
104.817652
70
0
0
VERTEX
8
Layer 1
10
62.972139
20
102.225130
70
0
0
VERTEX
8
Layer 1
10
62.000224
20
101.455140
70
0
0
VERTEX
8
Layer 1
10
61.566762
20
101.680740
70
0
0
VERTEX
8
Layer 1
10
61.066840
20
101.874407
70
0
0
VERTEX
8
Layer 1
10
60.217180
20
101.900000
70
0
0
VERTEX
8
Layer 1
10
59.089799
20
101.815967
70
0
0
VERTEX
8
Layer 1
10
57.912607
20
101.567630
70
0
0
VERTEX
8
Layer 1
10
55.150503
20
100.507010
70
0
0
VERTEX
8
Layer 1
10
53.027528
20
99.372470
70
0
0
VERTEX
8
Layer 1
10
51.082763
20
97.970424
70
0
0
VERTEX
8
Layer 1
10
49.078368
20
96.104029
70
0
0
VERTEX
8
Layer 1
10
46.776502
20
93.576440
70
0
0
VERTEX
8
Layer 1
10
44.006725
20
90.480596
70
0
0
VERTEX
8
Layer 1
10
41.566723
20
88.010605
70
0
0
VERTEX
8
Layer 1
10
39.208496
20
85.931334
70
0
0
VERTEX
8
Layer 1
10
36.684046
20
84.007650
70
0
0
VERTEX
8
Layer 1
10
33.480601
20
81.862771
70
0
0
VERTEX
8
Layer 1
10
30.524088
20
80.272944
70
0
0
VERTEX
8
Layer 1
10
27.306005
20
79.002622
70
0
0
VERTEX
8
Layer 1
10
23.317848
20
77.816260
70
0
0
VERTEX
8
Layer 1
10
19.380049
20
76.607873
70
0
0
VERTEX
8
Layer 1
10
16.706729
20
75.363080
70
0
0
VERTEX
8
Layer 1
10
15.736767
20
74.660523
70
0
0
VERTEX
8
Layer 1
10
14.953946
20
73.869054
70
0
0
VERTEX
8
Layer 1
10
14.315274
20
72.962071
70
0
0
VERTEX
8
Layer 1
10
13.777759
20
71.912970
70
0
0
VERTEX
8
Layer 1
10
13.323211
20
70.606864
70
0
0
VERTEX
8
Layer 1
10
13.232542
20
69.030990
70
0
0
VERTEX
8
Layer 1
10
13.478354
20
66.311435
70
0
0
VERTEX
8
Layer 1
10
14.244343
20
63.594010
70
0
0
VERTEX
8
Layer 1
10
14.982898
20
61.843592
70
0
0
VERTEX
8
Layer 1
10
15.848448
20
60.258887
70
0
0
VERTEX
8
Layer 1
10
16.868903
20
58.794780
70
0
0
VERTEX
8
Layer 1
10
18.072174
20
57.406150
70
0
0
VERTEX
8
Layer 1
10
19.397966
20
56.152318
70
0
0
VERTEX
8
Layer 1
10
20.691634
20
55.239936
70
0
0
VERTEX
8
Layer 1
10
22.074926
20
54.598329
70
0
0
VERTEX
8
Layer 1
10
23.669590
20
54.156820
70
0
0
VERTEX
8
Layer 1
10
25.418659
20
53.894482
70
0
0
VERTEX
8
Layer 1
10
27.214184
20
53.813732
70
0
0
VERTEX
8
Layer 1
10
28.934568
20
53.913902
70
0
0
VERTEX
8
Layer 1
10
30.458212
20
54.194320
70
0
0
VERTEX
8
Layer 1
10
33.065120
20
55.101119
70
0
0
VERTEX
8
Layer 1
10
35.980562
20
56.483770
70
0
0
VERTEX
8
Layer 1
10
38.677255
20
58.063245
70
0
0
VERTEX
8
Layer 1
10
41.228475
20
59.869472
70
0
0
VERTEX
8
Layer 1
10
43.698928
20
61.952567
70
0
0
VERTEX
8
Layer 1
10
46.153317
20
64.362640
70
0
0
VERTEX
8
Layer 1
10
48.109447
20
66.497837
70
0
0
VERTEX
8
Layer 1
10
50.136630
20
68.981110
70
0
0
VERTEX
8
Layer 1
10
51.876292
20
71.044306
70
0
0
VERTEX
8
Layer 1
10
53.376358
20
72.589260
70
0
0
VERTEX
8
Layer 1
10
53.708361
20
73.055480
70
0
0
VERTEX
8
Layer 1
10
54.112864
20
73.772720
70
0
0
VERTEX
8
Layer 1
10
54.445015
20
74.186442
70
0
0
VERTEX
8
Layer 1
10
54.564191
20
74.195030
70
0
0
VERTEX
8
Layer 1
10
54.864875
20
73.214480
70
0
0
VERTEX
8
Layer 1
10
55.841979
20
70.846029
70
0
0
VERTEX
8
Layer 1
10
57.251216
20
68.866880
70
0
0
VERTEX
8
Layer 1
10
58.583752
20
67.681684
70
0
0
VERTEX
8
Layer 1
10
60.285937
20
66.923830
70
0
0
VERTEX
8
Layer 1
10
61.120139
20
66.563560
70
0
0
VERTEX
8
Layer 1
10
61.741519
20
65.667400
70
0
0
VERTEX
8
Layer 1
10
62.232182
20
64.895320
70
0
0
VERTEX
8
Layer 1
10
61.645976
20
64.768590
70
0
0
VERTEX
8
Layer 1
10
59.959749
20
64.118929
70
0
0
VERTEX
8
Layer 1
10
58.315967
20
62.848890
70
0
0
VERTEX
8
Layer 1
10
56.781498
20
61.065429
70
0
0
VERTEX
8
Layer 1
10
55.536375
20
58.960524
70
0
0
VERTEX
8
Layer 1
10
54.633847
20
56.643802
70
0
0
VERTEX
8
Layer 1
10
54.127161
20
54.224890
70
0
0
VERTEX
8
Layer 1
10
54.080082
20
52.568512
70
0
0
VERTEX
8
Layer 1
10
54.233792
20
50.964380
70
0
0
VERTEX
8
Layer 1
10
54.631173
20
49.476125
70
0
0
VERTEX
8
Layer 1
10
55.211911
20
48.063658
70
0
0
VERTEX
8
Layer 1
10
55.962134
20
46.743304
70
0
0
VERTEX
8
Layer 1
10
56.867973
20
45.531390
70
0
0
VERTEX
8
Layer 1
10
57.915555
20
44.444240
70
0
0
VERTEX
8
Layer 1
10
59.091010
20
43.498180
70
0
0
VERTEX
8
Layer 1
10
60.380467
20
42.709535
70
0
0
VERTEX
8
Layer 1
10
61.770053
20
42.094630
70
0
0
VERTEX
8
Layer 1
10
63.164018
20
41.712269
70
0
0
VERTEX
8
Layer 1
10
65.069628
20
41.637220
70
0
0
VERTEX
8
Layer 1
10
67.830292
20
41.821572
70
0
0
VERTEX
8
Layer 1
10
70.128128
20
42.480390
70
0
0
VERTEX
8
Layer 1
10
71.279399
20
42.795670
70
0
0
VERTEX
8
Layer 1
10
71.717553
20
42.829070
70
0
0
VERTEX
8
Layer 1
10
71.719753
20
41.491560
70
0
0
VERTEX
8
Layer 1
10
71.787523
20
39.686737
70
0
0
VERTEX
8
Layer 1
10
72.015642
20
38.720250
70
0
0
VERTEX
8
Layer 1
10
72.778501
20
37.746330
70
0
0
VERTEX
8
Layer 1
10
73.863538
20
36.852030
70
0
0
VERTEX
8
Layer 1
10
75.481221
20
36.127020
70
0
0
VERTEX
8
Layer 1
10
76.561688
20
36.055949
70
0
0
VERTEX
8
Layer 1
10
77.771053
20
36.160820
70
0
0
VERTEX
8
Layer 1
10
77.771265
20
36.160710
70
0
0
SEQEND
8
Layer 1
 0 
ENDSEC
 0 
EOF